<?xml version="1.0" encoding="utf-8"?>
<!-- Generator: Adobe Illustrator 16.0.0, SVG Export Plug-In . SVG Version: 6.00 Build 0)  -->
<!DOCTYPE svg PUBLIC "-//W3C//DTD SVG 1.1//EN" "http://www.w3.org/Graphics/SVG/1.1/DTD/svg11.dtd">
<svg version="1.1" xmlns="http://www.w3.org/2000/svg" xmlns:xlink="http://www.w3.org/1999/xlink" x="0px" y="0px" width="696px"
	 height="158.666px" viewBox="0 0 696 158.666" enable-background="new 0 0 696 158.666" xml:space="preserve">
<g id="레이어_2" display="none">
	<rect x="-14" y="-10.667" display="inline" stroke="#000000" stroke-miterlimit="10" width="850.39" height="283.46"/>
	<g display="inline">
		<path d="M162.623,136.955c0-0.24-0.468-0.479-1.164-0.779c-0.06-0.024-0.096-0.048-0.096-0.072c0-0.06,0.18-0.12,0.348-0.12
			c0.432,0.072,1.043,0.264,1.332,0.384c0.18,0.061,0.228,0.145,0.228,0.24c0,0.084-0.048,0.18-0.048,0.264v2.902h1.211
			c0.54,0,0.479-0.288,1.043-0.3c0.54,0.024,0.768,0.132,0.768,0.336c0,0.144-0.096,0.24-0.384,0.24h-2.639v2.746h1.211
			c0.54,0,0.479-0.275,1.043-0.3c0.54,0.036,0.768,0.144,0.768,0.348c0,0.132-0.096,0.24-0.372,0.228h-2.651v2.291
			c0,0.6-0.192,1.079-0.372,1.079c-0.084,0-0.228-0.359-0.228-0.684V136.955z"/>
	</g>
</g>
<g id="레이어_1">
	<g>
		<path fill="#FFFFFF" d="M4.036,11.695c-0.339,0-0.508-0.155-0.508-0.466V8.18c0-0.112,0.049-0.218,0.148-0.317
			c0.099-0.099,0.218-0.148,0.36-0.148h10.502c1.271,0,2.266,0.339,2.986,1.017c0.72,0.677,1.08,1.609,1.08,2.795v7.114
			c0,1.186-0.36,2.104-1.08,2.752c-0.72,0.65-1.715,0.974-2.986,0.974H9.203v2.964c0,1.299,0.282,2.287,0.847,2.964
			c0.564,0.678,1.567,1.017,3.007,1.017h6.818c0.112,0,0.218,0.049,0.317,0.148c0.099,0.1,0.148,0.219,0.148,0.36v3.049
			c0,0.142-0.05,0.254-0.148,0.339c-0.099,0.084-0.205,0.127-0.317,0.127h-8.258c-2.484,0-4.433-0.628-5.844-1.885
			c-1.412-1.256-2.117-3.07-2.117-5.441v-7.241c0-0.311,0.155-0.466,0.466-0.466h8.935v-4.235c0-0.847-0.127-1.454-0.381-1.821
			c-0.254-0.367-0.833-0.55-1.736-0.55H4.036z M28.004,5.597c0.169,0,0.324,0.057,0.466,0.169c0.141,0.113,0.212,0.269,0.212,0.466
			v37.053c0,0.169-0.071,0.318-0.212,0.445c-0.142,0.127-0.296,0.19-0.466,0.19h-3.811c-0.198,0-0.354-0.063-0.466-0.19
			c-0.113-0.127-0.169-0.275-0.169-0.445v-21.47h-3.557c-0.169,0-0.317-0.063-0.445-0.19c-0.127-0.127-0.19-0.261-0.19-0.402v-2.71
			c0-0.197,0.063-0.36,0.19-0.487c0.127-0.127,0.275-0.19,0.445-0.19h3.557V6.232c0-0.423,0.212-0.635,0.635-0.635H28.004z
			 M35.584,5.597c0.169,0,0.324,0.057,0.466,0.169c0.141,0.113,0.212,0.269,0.212,0.466v37.053c0,0.169-0.071,0.318-0.212,0.445
			c-0.142,0.127-0.296,0.19-0.466,0.19h-3.811c-0.198,0-0.354-0.063-0.466-0.19c-0.113-0.127-0.169-0.275-0.169-0.445V6.232
			c0-0.423,0.212-0.635,0.635-0.635H35.584z"/>
		<path fill="#FFFFFF" d="M74.501,34.816c0.282,0,0.423,0.156,0.423,0.466v3.473c0,0.339-0.142,0.508-0.423,0.508H43.588
			c-0.367,0-0.551-0.169-0.551-0.508v-3.473c0-0.31,0.184-0.466,0.551-0.466h12.577v-7.495H45.663c-0.367,0-0.55-0.155-0.55-0.466
			v-3.388c0-0.339,0.183-0.508,0.55-0.508h4.786V12.076h-4.362c-0.367,0-0.551-0.155-0.551-0.466V8.222
			c0-0.339,0.184-0.508,0.551-0.508h25.662c0.282,0,0.423,0.169,0.423,0.508v3.388c0,0.311-0.142,0.466-0.423,0.466h-4.235v10.883
			h4.658c0.282,0,0.423,0.169,0.423,0.508v3.388c0,0.311-0.142,0.466-0.423,0.466H61.712v7.495H74.501z M55.826,22.959h6.31V12.076
			h-6.31V22.959z"/>
		<path fill="#FFFFFF" d="M112.613,34.816c0.282,0,0.423,0.156,0.423,0.466v3.473c0,0.339-0.142,0.508-0.423,0.508H81.7
			c-0.367,0-0.551-0.169-0.551-0.508v-3.473c0-0.31,0.184-0.466,0.551-0.466H112.613z M109.183,16.353
			c0.282,0,0.424,0.169,0.424,0.508v3.218c0,0.283-0.142,0.424-0.424,0.424H89.619v0.804c0,0.989,0.247,1.694,0.741,2.118
			c0.494,0.423,1.25,0.635,2.266,0.635h16.981c0.112,0,0.218,0.049,0.317,0.148c0.099,0.1,0.148,0.219,0.148,0.36v3.515
			c0,0.142-0.049,0.261-0.148,0.36c-0.099,0.099-0.205,0.148-0.317,0.148H89.534c-1.694,0-3.028-0.458-4.001-1.376
			c-0.974-0.917-1.461-2.181-1.461-3.79V11.525c0-1.186,0.36-2.118,1.08-2.795c0.72-0.678,1.715-1.017,2.985-1.017h21.428
			c0.112,0,0.226,0.05,0.339,0.148c0.112,0.099,0.169,0.205,0.169,0.317v3.6c0,0.142-0.057,0.254-0.169,0.339
			c-0.113,0.084-0.227,0.127-0.339,0.127H91.99c-0.904,0-1.524,0.205-1.863,0.614c-0.338,0.409-0.508,1.037-0.508,1.884v1.609
			H109.183z"/>
		<path fill="#FFFFFF" d="M152.503,16.184c0,1.497-0.261,2.852-0.784,4.065c-0.522,1.214-1.242,2.259-2.16,3.134
			c-0.917,0.875-2.005,1.553-3.26,2.033c-1.257,0.48-2.619,0.72-4.087,0.72c-1.468,0-2.823-0.239-4.065-0.72
			c-1.243-0.48-2.323-1.157-3.24-2.033c-0.917-0.875-1.638-1.919-2.16-3.134c-0.522-1.213-0.783-2.568-0.783-4.065
			c0-1.468,0.261-2.816,0.783-4.044c0.522-1.228,1.242-2.279,2.16-3.155c0.917-0.875,1.997-1.552,3.24-2.033
			c1.242-0.479,2.597-0.72,4.065-0.72c1.468,0,2.83,0.24,4.087,0.72c1.255,0.48,2.343,1.158,3.26,2.033
			c0.917,0.875,1.637,1.927,2.16,3.155S152.503,14.716,152.503,16.184z M146.786,16.184c0-0.932-0.134-1.771-0.402-2.52
			c-0.269-0.748-0.614-1.39-1.038-1.927c-0.423-0.536-0.91-0.945-1.461-1.228c-0.55-0.282-1.122-0.423-1.715-0.423
			s-1.165,0.142-1.715,0.423c-0.55,0.283-1.044,0.692-1.482,1.228c-0.438,0.537-0.784,1.179-1.038,1.927
			c-0.254,0.749-0.381,1.588-0.381,2.52s0.127,1.778,0.381,2.541s0.6,1.405,1.038,1.927c0.438,0.523,0.932,0.925,1.482,1.207
			c0.551,0.283,1.123,0.423,1.715,0.423s1.165-0.141,1.715-0.423c0.551-0.282,1.038-0.684,1.461-1.207
			c0.423-0.522,0.769-1.165,1.038-1.927C146.652,17.962,146.786,17.115,146.786,16.184z M151.317,27.236
			c1.637,0,3.176,0.219,4.616,0.656c1.439,0.438,2.695,1.045,3.769,1.821c1.073,0.777,1.913,1.715,2.52,2.816
			c0.606,1.101,0.91,2.315,0.91,3.642c0,1.328-0.304,2.541-0.91,3.642c-0.607,1.101-1.447,2.046-2.52,2.837
			c-1.073,0.79-2.329,1.397-3.769,1.821c-1.44,0.423-2.979,0.635-4.616,0.635c-1.667,0-3.219-0.212-4.658-0.635
			c-1.44-0.424-2.689-1.031-3.748-1.821c-1.059-0.791-1.892-1.736-2.498-2.837c-0.607-1.101-0.911-2.314-0.911-3.642
			c0-1.327,0.303-2.541,0.911-3.642c0.606-1.101,1.439-2.039,2.498-2.816c1.059-0.776,2.308-1.383,3.748-1.821
			C148.099,27.455,149.651,27.236,151.317,27.236z M157.415,36.213c0-1.609-0.55-2.872-1.651-3.79
			c-1.101-0.917-2.583-1.376-4.446-1.376s-3.339,0.459-4.425,1.376c-1.087,0.918-1.63,2.181-1.63,3.79
			c0,1.524,0.543,2.759,1.63,3.706c1.086,0.945,2.562,1.418,4.425,1.418s3.345-0.473,4.446-1.418
			C156.865,38.973,157.415,37.738,157.415,36.213z M163.132,9.916h4.446c0.169,0,0.318,0.063,0.445,0.19
			c0.127,0.127,0.19,0.275,0.19,0.445v2.456c0,0.198-0.063,0.354-0.19,0.466c-0.127,0.113-0.275,0.169-0.445,0.169h-4.446v3.684
			h4.446c0.169,0,0.318,0.063,0.445,0.19c0.127,0.127,0.19,0.29,0.19,0.487v2.456c0,0.142-0.063,0.275-0.19,0.402
			s-0.275,0.19-0.445,0.19h-4.446v5.167c0,0.198-0.071,0.353-0.211,0.466c-0.142,0.113-0.297,0.169-0.466,0.169h-4.277
			c-0.396,0-0.593-0.212-0.593-0.635V6.232c0-0.423,0.197-0.635,0.593-0.635h4.277c0.169,0,0.324,0.057,0.466,0.169
			c0.141,0.113,0.211,0.269,0.211,0.466V9.916z"/>
		<path fill="#FFFFFF" d="M189.26,25.754c-1.073-0.226-2.132-0.572-3.176-1.038s-1.849-0.896-2.414-1.292
			c-0.227-0.169-0.487-0.367-0.784-0.593c-0.296-0.226-0.607-0.494-0.932-0.805c-0.325-0.311-0.656-0.684-0.995-1.122
			c-0.338-0.438-0.649-0.938-0.932-1.503c-0.649,1.158-1.306,2.026-1.969,2.604c-0.664,0.579-1.222,1.024-1.673,1.334
			c-0.283,0.198-0.643,0.41-1.08,0.635c-0.438,0.227-0.91,0.452-1.418,0.678c-0.508,0.226-1.052,0.438-1.63,0.635
			c-0.579,0.198-1.137,0.353-1.673,0.466c-0.311,0.084-0.579,0.092-0.804,0.021c-0.227-0.07-0.339-0.261-0.339-0.572v-2.71
			c0-0.395,0.063-0.691,0.19-0.889c0.127-0.197,0.402-0.381,0.826-0.551c1.835-0.677,3.232-1.496,4.192-2.456
			c0.508-0.508,0.932-1.03,1.271-1.567c0.339-0.536,0.607-1.122,0.805-1.757c0.197-0.635,0.339-1.34,0.423-2.117
			c0.084-0.776,0.127-1.658,0.127-2.647v-3.43c0-0.141,0.078-0.282,0.233-0.423c0.155-0.141,0.318-0.211,0.487-0.211h4.065
			c0.169,0,0.324,0.071,0.466,0.211c0.141,0.142,0.212,0.283,0.212,0.423v3.43c0,1.609,0.155,2.993,0.466,4.15
			c0.31,1.158,0.889,2.273,1.736,3.346c0.959,1.271,2.441,2.287,4.446,3.049c0.423,0.169,0.699,0.354,0.826,0.551
			c0.127,0.198,0.19,0.494,0.19,0.889v2.71c0,0.311-0.113,0.501-0.339,0.572C189.838,25.846,189.57,25.838,189.26,25.754z
			 M176.767,33.884c-0.113,0-0.219-0.049-0.317-0.148c-0.099-0.099-0.148-0.219-0.148-0.36v-3.43c0-0.141,0.049-0.261,0.148-0.36
			c0.099-0.098,0.205-0.148,0.317-0.148h19.014c1.694,0,3.027,0.459,4.001,1.376s1.461,2.181,1.461,3.79v8.681
			c0,0.141-0.057,0.282-0.169,0.424c-0.113,0.141-0.282,0.211-0.508,0.211h-4.192c-0.198,0-0.36-0.071-0.487-0.211
			c-0.127-0.142-0.19-0.283-0.19-0.424v-6.648c0-0.988-0.248-1.694-0.741-2.117c-0.494-0.423-1.249-0.635-2.266-0.635H176.767z
			 M201.244,26.135c0,0.198-0.071,0.354-0.211,0.466c-0.142,0.113-0.297,0.169-0.466,0.169h-4.277c-0.396,0-0.593-0.211-0.593-0.635
			V6.232c0-0.423,0.197-0.635,0.593-0.635h4.277c0.169,0,0.324,0.057,0.466,0.169c0.141,0.113,0.211,0.269,0.211,0.466V26.135z"/>
	</g>
	<g>
		<path fill="#FFFFFF" d="M246.283,29.565v4.955c0,0.169-0.057,0.332-0.169,0.487c-0.113,0.156-0.269,0.233-0.466,0.233h-4.319
			c-0.169,0-0.311-0.077-0.423-0.233c-0.113-0.155-0.169-0.317-0.169-0.487v-4.955h-13.593c-0.367,0-0.551-0.155-0.551-0.466v-3.261
			c0-0.339,0.184-0.508,0.551-0.508h30.913c0.282,0,0.423,0.169,0.423,0.508v3.261c0,0.311-0.142,0.466-0.423,0.466H246.283z
			 M238.068,39.474c-1.016,0-1.772-0.212-2.266-0.635c-0.494-0.423-0.741-1.129-0.741-2.117v-3.346c0-0.141-0.063-0.282-0.191-0.423
			c-0.127-0.141-0.29-0.211-0.487-0.211h-4.192c-0.226,0-0.396,0.071-0.508,0.211c-0.113,0.142-0.169,0.283-0.169,0.423v5.378
			c0,1.609,0.487,2.872,1.461,3.79c0.974,0.917,2.308,1.376,4.001,1.376h20.073c0.112,0,0.218-0.049,0.317-0.148
			c0.099-0.1,0.148-0.219,0.148-0.36v-3.43c0-0.142-0.049-0.261-0.148-0.36c-0.099-0.1-0.205-0.148-0.317-0.148H238.068z
			 M255.049,17.157c0,1.609-0.487,2.873-1.461,3.79c-0.974,0.918-2.308,1.376-4.001,1.376h-14.059c-1.694,0-3.028-0.458-4.002-1.376
			c-0.974-0.917-1.461-2.181-1.461-3.79V7.291c0-0.423,0.197-0.635,0.593-0.635h23.926c0.112,0,0.218,0.05,0.317,0.148
			c0.099,0.099,0.148,0.219,0.148,0.36V17.157z M247.723,18.385c1.186,0,1.778-0.663,1.778-1.99v-5.801h-13.932v5.801
			c0,1.328,0.593,1.99,1.779,1.99H247.723z"/>
		<path fill="#FFFFFF" d="M270.04,20.46c0,1.327,0.593,1.99,1.778,1.99h13.424c0.112,0,0.226,0.042,0.339,0.127
			c0.112,0.085,0.169,0.198,0.169,0.339v3.515c0,0.113-0.057,0.219-0.169,0.318c-0.113,0.099-0.227,0.148-0.339,0.148h-15.287
			c-1.694,0-3.028-0.451-4.002-1.355c-0.974-0.903-1.461-2.16-1.461-3.769V10.678c0-1.186,0.36-2.117,1.08-2.795
			c0.72-0.677,1.715-1.016,2.986-1.016h14.313c0.112,0,0.226,0.049,0.339,0.148c0.112,0.1,0.169,0.205,0.169,0.318v3.515
			c0,0.142-0.057,0.254-0.169,0.339c-0.113,0.084-0.227,0.127-0.339,0.127h-10.714c-0.904,0-1.482,0.184-1.736,0.551
			c-0.254,0.367-0.381,0.974-0.381,1.821V20.46z M295.066,39.474c0.113,0,0.218,0.049,0.318,0.148
			c0.099,0.099,0.148,0.218,0.148,0.36v3.43c0,0.141-0.049,0.26-0.148,0.36c-0.1,0.099-0.205,0.148-0.318,0.148h-19.691
			c-1.694,0-3.027-0.459-4.001-1.376c-0.974-0.918-1.461-2.181-1.461-3.79v-7.496c0-0.141,0.056-0.282,0.169-0.423
			c0.112-0.141,0.282-0.212,0.508-0.212h4.192c0.197,0,0.36,0.071,0.487,0.212c0.127,0.142,0.19,0.283,0.19,0.423v5.463
			c0,0.988,0.247,1.694,0.741,2.117c0.494,0.423,1.249,0.635,2.265,0.635H295.066z M299.089,13.896c0.395,0,0.593,0.227,0.593,0.678
			v2.499c0,0.142-0.057,0.275-0.169,0.402s-0.254,0.19-0.423,0.19h-4.489v15.668c0,0.198-0.071,0.353-0.211,0.466
			c-0.142,0.113-0.297,0.169-0.466,0.169h-4.277c-0.396,0-0.593-0.212-0.593-0.635V6.232c0-0.423,0.197-0.635,0.593-0.635h4.277
			c0.169,0,0.324,0.057,0.466,0.169c0.141,0.113,0.211,0.269,0.211,0.466v7.665H299.089z"/>
		<path fill="#FFFFFF" d="M322.083,27.532c-1.694,0-3.028-0.458-4.001-1.376c-0.974-0.917-1.461-2.181-1.461-3.79V7.502
			c0-0.424,0.197-0.635,0.593-0.635h4.234c0.452,0,0.678,0.211,0.678,0.635v6.394h8.173V7.502c0-0.424,0.212-0.635,0.635-0.635
			h4.235c0.451,0,0.677,0.211,0.677,0.635v7.241h6.141V6.232c0-0.423,0.197-0.635,0.593-0.635h4.277
			c0.169,0,0.324,0.057,0.466,0.169c0.141,0.113,0.212,0.269,0.212,0.466v27.525c0,0.198-0.071,0.354-0.212,0.466
			c-0.142,0.113-0.296,0.169-0.466,0.169h-4.277c-0.396,0-0.593-0.212-0.593-0.635V18.724h-6.141v3.642
			c0,1.609-0.487,2.873-1.461,3.79c-0.974,0.917-2.308,1.376-4.001,1.376H322.083z M330.298,17.666h-8.173v3.938
			c0,1.327,0.593,1.99,1.778,1.99h4.616c1.186,0,1.778-0.663,1.778-1.99V17.666z M347.576,39.474c0.113,0,0.219,0.049,0.318,0.148
			c0.099,0.099,0.148,0.218,0.148,0.36v3.43c0,0.141-0.049,0.26-0.148,0.36c-0.099,0.099-0.205,0.148-0.318,0.148h-19.691
			c-1.694,0-3.028-0.459-4.002-1.376c-0.974-0.918-1.461-2.181-1.461-3.79v-7.496c0-0.141,0.056-0.282,0.169-0.423
			c0.112-0.141,0.282-0.212,0.508-0.212h4.192c0.197,0,0.36,0.071,0.487,0.212c0.127,0.142,0.19,0.283,0.19,0.423v5.463
			c0,0.988,0.247,1.694,0.741,2.117c0.494,0.423,1.249,0.635,2.266,0.635H347.576z"/>
		<path fill="#FFFFFF" d="M386.365,34.816c0.282,0,0.423,0.156,0.423,0.466v3.473c0,0.339-0.142,0.508-0.423,0.508h-30.913
			c-0.367,0-0.551-0.169-0.551-0.508v-3.473c0-0.31,0.184-0.466,0.551-0.466h12.577v-4.955c-1.13-0.254-2.153-0.67-3.07-1.249
			c-0.918-0.579-1.701-1.271-2.35-2.075c-0.65-0.805-1.151-1.715-1.503-2.731c-0.354-1.016-0.529-2.103-0.529-3.261
			c0-1.27,0.226-2.462,0.677-3.578c0.452-1.115,1.086-2.082,1.906-2.901h-5.124c-0.169,0-0.311-0.063-0.423-0.19
			c-0.113-0.127-0.169-0.275-0.169-0.445v-3.133c0-0.452,0.197-0.678,0.593-0.678h9.952v-3.43c0-0.141,0.07-0.275,0.212-0.402
			c0.141-0.127,0.324-0.19,0.55-0.19h4.277c0.197,0,0.353,0.063,0.466,0.19s0.169,0.262,0.169,0.402v3.43h9.994
			c0.395,0,0.593,0.226,0.593,0.678v3.133c0,0.169-0.057,0.318-0.169,0.445c-0.113,0.127-0.254,0.19-0.423,0.19h-5.167
			c0.818,0.819,1.454,1.786,1.906,2.901c0.451,1.116,0.677,2.308,0.677,3.578c0,1.158-0.184,2.245-0.55,3.261
			c-0.367,1.017-0.875,1.927-1.524,2.731c-0.65,0.805-1.433,1.497-2.351,2.075s-1.941,0.995-3.07,1.249v4.955H386.365z
			 M375.821,20.545c0-0.959-0.134-1.813-0.402-2.562c-0.269-0.748-0.635-1.376-1.101-1.884s-1.002-0.896-1.609-1.165
			c-0.607-0.268-1.264-0.402-1.969-0.402c-0.678,0-1.327,0.134-1.948,0.402c-0.622,0.269-1.158,0.656-1.609,1.165
			c-0.452,0.508-0.812,1.137-1.08,1.884c-0.269,0.749-0.402,1.603-0.402,2.562c0,0.904,0.133,1.708,0.402,2.414
			c0.268,0.706,0.628,1.313,1.08,1.821c0.451,0.508,0.988,0.896,1.609,1.165c0.621,0.269,1.27,0.402,1.948,0.402
			c0.706,0,1.362-0.141,1.969-0.423c0.606-0.282,1.143-0.678,1.609-1.186c0.466-0.508,0.833-1.115,1.101-1.821
			C375.687,22.211,375.821,21.42,375.821,20.545z"/>
		<path fill="#FFFFFF" d="M427.652,18.979c0.112,0,0.219,0.049,0.317,0.148c0.099,0.099,0.148,0.219,0.148,0.36v3.303
			c0,0.142-0.05,0.261-0.148,0.36c-0.099,0.099-0.205,0.148-0.317,0.148h-15.414c-1.694,0-3.028-0.458-4.002-1.376
			c-0.974-0.917-1.461-2.181-1.461-3.79V7.079c0-0.141,0.056-0.282,0.169-0.423c0.112-0.141,0.282-0.211,0.508-0.211h4.192
			c0.197,0,0.361,0.071,0.488,0.211c0.127,0.142,0.189,0.283,0.189,0.423v9.147c0,0.989,0.247,1.694,0.742,2.118
			c0.493,0.423,1.248,0.635,2.266,0.635H427.652z M433.412,32.699c1.072,1.243,1.608,2.654,1.608,4.234
			c0,1.101-0.254,2.118-0.763,3.049c-0.508,0.932-1.207,1.722-2.096,2.371s-1.934,1.158-3.134,1.525
			c-1.2,0.366-2.491,0.55-3.874,0.55c-1.384,0-2.676-0.184-3.875-0.55c-1.201-0.367-2.244-0.875-3.134-1.525
			s-1.588-1.439-2.097-2.371c-0.508-0.932-0.762-1.948-0.762-3.049c0-1.609,0.521-3.021,1.566-4.234h-3.642
			c-0.169,0-0.312-0.063-0.423-0.19c-0.113-0.127-0.17-0.275-0.17-0.445v-2.795c0-0.451,0.197-0.678,0.593-0.678h9.021v-2.71
			c0-0.141,0.07-0.275,0.211-0.402s0.324-0.19,0.551-0.19h4.531c0.197,0,0.353,0.063,0.466,0.19
			c0.112,0.127,0.169,0.261,0.169,0.402v2.71h8.979c0.395,0,0.592,0.227,0.592,0.678v2.795c0,0.169-0.057,0.317-0.169,0.445
			c-0.113,0.127-0.255,0.19-0.423,0.19H433.412z M429.896,36.679c0-1.186-0.416-2.131-1.249-2.837
			c-0.833-0.705-1.927-1.086-3.282-1.143h-0.211c-1.44,0-2.584,0.36-3.431,1.08c-0.847,0.72-1.271,1.688-1.271,2.901
			c0,1.186,0.424,2.145,1.271,2.88c0.847,0.733,1.99,1.101,3.431,1.101c1.439,0,2.59-0.367,3.451-1.101
			C429.466,38.824,429.896,37.865,429.896,36.679z M437.73,24.441c0,0.198-0.07,0.354-0.211,0.466
			c-0.143,0.113-0.297,0.169-0.467,0.169h-4.276c-0.396,0-0.593-0.212-0.593-0.635v-9.104h-9.02c-0.17,0-0.318-0.063-0.445-0.19
			s-0.19-0.261-0.19-0.402v-2.71c0-0.197,0.063-0.36,0.19-0.487s0.275-0.19,0.445-0.19h9.02V6.232c0-0.423,0.197-0.635,0.593-0.635
			h4.276c0.17,0,0.324,0.057,0.467,0.169c0.141,0.113,0.211,0.269,0.211,0.466V24.441z"/>
		<path fill="#FFFFFF" d="M444.676,12.161c-0.113,0-0.219-0.049-0.318-0.148c-0.1-0.099-0.148-0.218-0.148-0.36v-3.43
			c0-0.141,0.049-0.261,0.148-0.36c0.1-0.099,0.205-0.148,0.318-0.148h12.661c1.694,0,3.028,0.459,4.002,1.376
			c0.974,0.917,1.461,2.181,1.461,3.79v19.691c0,0.142-0.057,0.282-0.169,0.423c-0.113,0.142-0.283,0.212-0.509,0.212h-4.149
			c-0.198,0-0.36-0.07-0.487-0.212c-0.127-0.141-0.19-0.282-0.19-0.423V14.913c0-0.988-0.248-1.694-0.741-2.117
			c-0.494-0.424-1.249-0.635-2.266-0.635H444.676z M474.318,5.597c0.169,0,0.324,0.057,0.466,0.169
			c0.141,0.113,0.212,0.269,0.212,0.466v37.053c0,0.169-0.071,0.318-0.212,0.445c-0.142,0.127-0.297,0.19-0.466,0.19h-4.234
			c-0.198,0-0.354-0.063-0.467-0.19s-0.169-0.275-0.169-0.445V6.232c0-0.423,0.212-0.635,0.636-0.635H474.318z"/>
	</g>
	<g>
		<path fill="#FFFFFF" d="M529.051,15.802c0,1.609-0.488,2.873-1.462,3.79c-0.974,0.918-2.308,1.376-4.001,1.376h-4.32v2.922h12.789
			c0.281,0,0.424,0.155,0.424,0.466v3.261c0,0.339-0.143,0.508-0.424,0.508h-30.913c-0.367,0-0.551-0.169-0.551-0.508v-3.261
			c0-0.311,0.184-0.466,0.551-0.466h12.577v-2.922h-4.192c-1.694,0-3.028-0.458-4.002-1.376c-0.974-0.917-1.461-2.181-1.461-3.79
			v-8.3c0-0.424,0.197-0.635,0.593-0.635h23.926c0.113,0,0.219,0.049,0.318,0.148c0.098,0.1,0.148,0.219,0.148,0.36V15.802z
			 M503.896,35.494c-0.113,0-0.219-0.049-0.318-0.148c-0.1-0.099-0.148-0.218-0.148-0.36v-3.43c0-0.141,0.049-0.261,0.148-0.36
			c0.1-0.099,0.205-0.148,0.318-0.148h20.283c1.694,0,3.028,0.459,4.002,1.376c0.975,0.918,1.461,2.181,1.461,3.79v7.072
			c0,0.141-0.057,0.282-0.169,0.424c-0.113,0.141-0.282,0.211-0.509,0.211h-4.191c-0.198,0-0.36-0.071-0.487-0.211
			c-0.127-0.142-0.19-0.283-0.19-0.424v-5.039c0-0.988-0.248-1.694-0.741-2.117c-0.494-0.424-1.249-0.635-2.266-0.635H503.896z
			 M521.725,17.03c1.186,0,1.777-0.663,1.777-1.99v-4.235H509.57v4.235c0,1.327,0.594,1.99,1.779,1.99H521.725z"/>
		<path fill="#FFFFFF" d="M551.197,14.066v2.541c0.057,1.722,0.226,3.296,0.508,4.722c0.282,1.426,0.748,2.689,1.397,3.79
			c0.509,0.875,1.129,1.638,1.863,2.287c0.733,0.65,1.609,1.2,2.626,1.651c0.424,0.198,0.698,0.389,0.826,0.572
			c0.127,0.184,0.189,0.473,0.189,0.868v3.091c0,0.311-0.113,0.501-0.338,0.572c-0.227,0.071-0.494,0.063-0.805-0.021
			c-0.819-0.226-1.666-0.551-2.541-0.974s-1.596-0.847-2.16-1.271c-0.903-0.678-1.793-1.496-2.668-2.456
			c-0.875-0.959-1.539-1.962-1.99-3.007c-0.451,1.045-1.08,2.033-1.885,2.964c-0.804,0.932-1.658,1.736-2.562,2.414
			c-0.565,0.423-1.299,0.861-2.202,1.313c-0.903,0.452-1.723,0.791-2.455,1.017c-0.312,0.113-0.58,0.127-0.805,0.042
			c-0.227-0.084-0.34-0.282-0.34-0.593v-3.091c0-0.395,0.064-0.684,0.191-0.868c0.127-0.183,0.402-0.374,0.825-0.572
			c1.017-0.451,1.892-1.001,2.626-1.651c0.733-0.649,1.355-1.411,1.863-2.287c0.648-1.101,1.115-2.364,1.396-3.79
			c0.283-1.425,0.451-3,0.509-4.722v-2.541h-6.183c-0.17,0-0.311-0.063-0.424-0.19s-0.169-0.275-0.169-0.445v-3.133
			c0-0.452,0.197-0.678,0.593-0.678h6.395V6.147c0-0.141,0.07-0.275,0.211-0.402c0.142-0.127,0.324-0.191,0.551-0.191h4.15
			c0.197,0,0.353,0.063,0.466,0.191c0.112,0.127,0.169,0.261,0.169,0.402V9.62h6.141c0.395,0,0.593,0.226,0.593,0.678v3.133
			c0,0.169-0.057,0.318-0.169,0.445c-0.113,0.127-0.254,0.19-0.424,0.19H551.197z M567.924,5.597c0.17,0,0.324,0.057,0.467,0.169
			c0.141,0.113,0.211,0.269,0.211,0.466v10.925h4.446c0.169,0,0.317,0.063,0.444,0.191c0.127,0.127,0.191,0.29,0.191,0.487v2.71
			c0,0.142-0.064,0.275-0.191,0.402s-0.275,0.191-0.444,0.191h-4.446v22.147c0,0.169-0.07,0.318-0.211,0.445
			c-0.143,0.127-0.297,0.19-0.467,0.19h-4.234c-0.197,0-0.354-0.063-0.466-0.19c-0.113-0.127-0.169-0.275-0.169-0.445V6.232
			c0-0.423,0.211-0.635,0.635-0.635H567.924z"/>
		<path fill="#FFFFFF" d="M596.084,26.431c-1.693,0-3.027-0.458-4.002-1.376c-0.974-0.917-1.461-2.181-1.461-3.79V7.502
			c0-0.424,0.197-0.635,0.594-0.635h18.166c0.113,0,0.219,0.049,0.318,0.148c0.098,0.1,0.147,0.219,0.147,0.36v13.89
			c0,1.609-0.487,2.873-1.461,3.79c-0.974,0.917-2.308,1.376-4.001,1.376H596.084z M621.153,39.474c0.112,0,0.218,0.049,0.317,0.148
			c0.1,0.099,0.148,0.218,0.148,0.36v3.43c0,0.141-0.049,0.26-0.148,0.36c-0.1,0.099-0.205,0.148-0.317,0.148h-19.691
			c-1.694,0-3.027-0.459-4.001-1.376c-0.975-0.918-1.461-2.181-1.461-3.79v-7.496c0-0.141,0.056-0.282,0.169-0.423
			c0.112-0.141,0.282-0.212,0.508-0.212h4.192c0.197,0,0.359,0.071,0.487,0.212c0.127,0.142,0.19,0.283,0.19,0.423v5.463
			c0,0.988,0.246,1.694,0.741,2.117c0.493,0.423,1.249,0.635,2.265,0.635H621.153z M602.563,22.493c1.187,0,1.779-0.663,1.779-1.99
			v-9.698h-8.215v9.698c0,1.327,0.592,1.99,1.777,1.99H602.563z M625.176,13.896c0.396,0,0.594,0.227,0.594,0.678v2.499
			c0,0.142-0.057,0.275-0.17,0.402s-0.254,0.19-0.424,0.19h-4.488v15.668c0,0.198-0.07,0.353-0.211,0.466
			c-0.143,0.113-0.297,0.169-0.467,0.169h-4.277c-0.395,0-0.592-0.212-0.592-0.635V6.232c0-0.423,0.197-0.635,0.592-0.635h4.277
			c0.17,0,0.324,0.057,0.467,0.169c0.141,0.113,0.211,0.269,0.211,0.466v7.665H625.176z"/>
		<path fill="#FFFFFF" d="M660.366,21.18c0.282,0,0.423,0.156,0.423,0.466v3.049c0,0.338-0.141,0.508-0.423,0.508h-30.913
			c-0.367,0-0.551-0.169-0.551-0.508v-3.049c0-0.31,0.184-0.466,0.551-0.466H660.366z M637.203,13.177
			c0,0.989,0.465,1.482,1.396,1.482h18.76c0.311,0,0.466,0.169,0.466,0.508v3.218c0,0.311-0.155,0.466-0.466,0.466h-20.072
			c-1.693,0-3.027-0.451-4.002-1.355c-0.974-0.903-1.461-2.16-1.461-3.769v-3.515c0-1.186,0.36-2.11,1.08-2.773
			c0.72-0.663,1.715-0.995,2.985-0.995h21.046c0.113,0,0.227,0.036,0.34,0.105c0.111,0.071,0.169,0.177,0.169,0.318v3.303
			c0,0.142-0.058,0.254-0.169,0.339c-0.113,0.085-0.227,0.127-0.34,0.127H638.6c-0.932,0-1.396,0.508-1.396,1.525V13.177z
			 M631.824,34.308c0-0.31,0.155-0.466,0.467-0.466h19.352v-1.228c0-0.818-0.354-1.228-1.059-1.228h-18.252
			c-0.338,0-0.508-0.141-0.508-0.423v-3.049c0-0.282,0.17-0.423,0.508-0.423h20.963c1.27,0,2.266,0.338,2.984,1.016
			c0.721,0.678,1.08,1.609,1.08,2.795V33.8c0,2.4-1.27,3.599-3.811,3.599h-16.008v1.017c0,0.508,0.17,0.911,0.508,1.207
			c0.34,0.296,0.805,0.444,1.398,0.444h17.912c0.113,0,0.227,0.042,0.339,0.127c0.112,0.085,0.169,0.197,0.169,0.339v2.922
			c0,0.141-0.057,0.254-0.169,0.339c-0.112,0.085-0.226,0.127-0.339,0.127h-18.548c-2.286,0-4.022-0.614-5.208-1.842
			s-1.779-2.901-1.779-5.018V34.308z"/>
		<path fill="#FFFFFF" d="M666.591,12.161c-0.113,0-0.219-0.049-0.317-0.148c-0.1-0.099-0.148-0.218-0.148-0.36v-3.43
			c0-0.141,0.049-0.261,0.148-0.36c0.099-0.099,0.204-0.148,0.317-0.148h12.661c1.694,0,3.028,0.459,4.002,1.376
			c0.975,0.917,1.461,2.181,1.461,3.79v19.691c0,0.142-0.057,0.282-0.169,0.423c-0.113,0.142-0.282,0.212-0.509,0.212h-4.149
			c-0.198,0-0.36-0.07-0.487-0.212c-0.127-0.141-0.189-0.282-0.189-0.423V14.913c0-0.988-0.248-1.694-0.742-2.117
			c-0.494-0.424-1.249-0.635-2.266-0.635H666.591z M696.234,5.597c0.168,0,0.324,0.057,0.465,0.169
			c0.141,0.113,0.212,0.269,0.212,0.466v37.053c0,0.169-0.071,0.318-0.212,0.445s-0.297,0.19-0.465,0.19h-4.235
			c-0.198,0-0.354-0.063-0.466-0.19c-0.113-0.127-0.17-0.275-0.17-0.445V6.232c0-0.423,0.213-0.635,0.636-0.635H696.234z"/>
	</g>
	<g>
		<path fill="#FFFFFF" d="M36.389,88.483c0.282,0,0.423,0.156,0.423,0.466v3.473c0,0.339-0.142,0.508-0.423,0.508H5.476
			c-0.367,0-0.551-0.169-0.551-0.508v-3.473c0-0.31,0.184-0.466,0.551-0.466h12.577v-6.479c0-0.169,0.056-0.332,0.169-0.487
			c0.112-0.155,0.254-0.233,0.423-0.233h4.319c0.197,0,0.353,0.078,0.466,0.233c0.112,0.155,0.169,0.317,0.169,0.487v6.479H36.389z
			 M7.297,65.446c-0.113,0-0.219-0.049-0.317-0.148c-0.1-0.099-0.148-0.219-0.148-0.36v-3.43c0-0.141,0.049-0.261,0.148-0.36
			C7.078,61.049,7.184,61,7.297,61h7.326c1.694,0,3.028,0.459,4.001,1.376c0.974,0.918,1.461,2.181,1.461,3.79v12.916
			c0,0.142-0.057,0.283-0.169,0.423c-0.113,0.142-0.283,0.212-0.508,0.212h-3.727c-0.198,0-0.36-0.07-0.487-0.212
			c-0.127-0.141-0.191-0.282-0.191-0.423v-11.73c0-1.271-0.72-1.906-2.16-1.906H7.297z M21.695,65.446
			c-0.113,0-0.219-0.049-0.317-0.148c-0.1-0.099-0.148-0.219-0.148-0.36v-3.43c0-0.141,0.049-0.261,0.148-0.36
			C21.476,61.049,21.582,61,21.695,61h6.733c1.694,0,3.027,0.459,4.001,1.376c0.974,0.918,1.461,2.181,1.461,3.79v12.916
			c0,0.142-0.057,0.283-0.169,0.423c-0.113,0.142-0.282,0.212-0.508,0.212h-3.727c-0.198,0-0.36-0.07-0.487-0.212
			c-0.127-0.141-0.19-0.282-0.19-0.423V68.199c0-0.988-0.248-1.694-0.741-2.117c-0.494-0.423-1.249-0.635-2.265-0.635H21.695z"/>
		<path fill="#FFFFFF" d="M42.36,65.362c-0.339,0-0.508-0.155-0.508-0.466v-3.049c0-0.112,0.049-0.218,0.148-0.317
			c0.099-0.099,0.218-0.148,0.36-0.148h14.313c1.271,0,2.266,0.339,2.986,1.017c0.72,0.677,1.08,1.609,1.08,2.795v7.114
			c0,1.186-0.36,2.104-1.08,2.752c-0.72,0.65-1.715,0.974-2.986,0.974h-9.147v2.964c0,1.299,0.282,2.287,0.847,2.964
			c0.564,0.678,1.567,1.017,3.007,1.017h11.476c0.113,0,0.219,0.049,0.318,0.148c0.099,0.1,0.148,0.219,0.148,0.36v3.049
			c0,0.142-0.049,0.254-0.148,0.339c-0.099,0.084-0.205,0.127-0.318,0.127H49.94c-2.485,0-4.433-0.628-5.844-1.885
			c-1.412-1.256-2.118-3.07-2.118-5.441v-7.241c0-0.311,0.155-0.466,0.466-0.466h12.747v-4.235c0-0.847-0.127-1.454-0.381-1.821
			c-0.254-0.367-0.833-0.55-1.736-0.55H42.36z M72.257,59.264c0.169,0,0.324,0.057,0.466,0.169c0.141,0.113,0.211,0.269,0.211,0.466
			v37.053c0,0.169-0.071,0.318-0.211,0.445c-0.142,0.127-0.297,0.19-0.466,0.19h-4.235c-0.198,0-0.354-0.063-0.466-0.19
			c-0.113-0.127-0.169-0.275-0.169-0.445V59.899c0-0.423,0.212-0.635,0.635-0.635H72.257z"/>
		<path fill="#FFFFFF" d="M86.442,77.558c-1.694,0-3.028-0.458-4.001-1.376c-0.974-0.917-1.461-2.181-1.461-3.79V60.746
			c0-0.423,0.197-0.635,0.593-0.635h18.167c0.113,0,0.218,0.049,0.318,0.148c0.099,0.099,0.148,0.219,0.148,0.36v11.772
			c0,1.609-0.487,2.873-1.461,3.79c-0.974,0.918-2.308,1.376-4.001,1.376H86.442z M105.499,86.62c0-1.327-0.593-1.99-1.778-1.99
			H86.569c-0.338,0-0.508-0.141-0.508-0.423v-3.134c0-0.282,0.169-0.423,0.508-0.423h20.411c1.271,0,2.266,0.339,2.986,1.016
			c0.72,0.678,1.08,1.609,1.08,2.795v2.922c0,1.271-0.296,2.188-0.889,2.752c-0.593,0.565-1.567,0.847-2.922,0.847H91.609v1.016
			c0,0.508,0.169,0.911,0.508,1.207c0.338,0.296,0.804,0.445,1.397,0.445h17.235c0.112,0,0.226,0.042,0.339,0.127
			c0.112,0.084,0.169,0.197,0.169,0.339v3.006c0,0.141-0.057,0.254-0.169,0.339c-0.113,0.085-0.227,0.127-0.339,0.127H93.049
			c-2.287,0-4.023-0.593-5.209-1.778c-1.186-1.186-1.778-2.837-1.778-4.955v-3.049c0-0.311,0.155-0.466,0.466-0.466h18.971V86.62z
			 M92.921,73.619c1.186,0,1.779-0.663,1.779-1.99v-7.58h-8.215v7.58c0,1.327,0.593,1.99,1.778,1.99H92.921z M115.535,65.87
			c0.395,0,0.593,0.227,0.593,0.678v2.499c0,0.142-0.057,0.275-0.169,0.402s-0.254,0.19-0.423,0.19h-4.489v8.554
			c0,0.198-0.071,0.353-0.211,0.466c-0.142,0.113-0.297,0.169-0.466,0.169h-4.277c-0.396,0-0.593-0.212-0.593-0.635V59.899
			c0-0.423,0.197-0.635,0.593-0.635h4.277c0.169,0,0.324,0.057,0.466,0.169c0.141,0.113,0.211,0.269,0.211,0.466v5.971H115.535z"/>
		<path fill="#FFFFFF" d="M151.91,86.196v10.671c0,0.169-0.057,0.332-0.169,0.487c-0.113,0.155-0.269,0.233-0.466,0.233h-4.319
			c-0.169,0-0.311-0.078-0.423-0.233c-0.113-0.155-0.169-0.317-0.169-0.487V86.196h-12.577c-0.367,0-0.551-0.155-0.551-0.466v-3.473
			c0-0.338,0.184-0.508,0.551-0.508h30.913c0.282,0,0.423,0.169,0.423,0.508v3.473c0,0.311-0.142,0.466-0.423,0.466H151.91z
			 M151.995,62.694c0,0.734,0.085,1.489,0.254,2.266c0.169,0.777,0.402,1.524,0.699,2.244c0.296,0.72,0.642,1.384,1.037,1.99
			c0.395,0.607,0.833,1.123,1.313,1.546c0.818,0.734,1.792,1.397,2.922,1.99c1.129,0.593,2.287,0.974,3.473,1.144
			c0.423,0.057,0.698,0.205,0.826,0.444c0.127,0.24,0.19,0.558,0.19,0.953v2.16c0,0.311-0.113,0.515-0.339,0.614
			c-0.226,0.099-0.494,0.134-0.805,0.106c-1.355-0.084-2.704-0.353-4.044-0.805c-1.341-0.451-2.52-0.974-3.536-1.567
			c-1.186-0.677-2.216-1.489-3.091-2.435s-1.497-1.758-1.863-2.435c-0.169,0.339-0.417,0.72-0.741,1.143
			c-0.325,0.424-0.699,0.854-1.123,1.292c-0.423,0.438-0.896,0.868-1.418,1.292c-0.522,0.423-1.08,0.804-1.673,1.143
			c-1.016,0.565-2.174,1.066-3.472,1.503c-1.299,0.438-2.583,0.727-3.854,0.868c-0.311,0.057-0.579,0.028-0.805-0.084
			c-0.226-0.113-0.339-0.324-0.339-0.635v-2.16c0-0.395,0.063-0.713,0.19-0.953c0.127-0.239,0.402-0.388,0.826-0.444
			c1.186-0.169,2.343-0.551,3.472-1.144c1.129-0.593,2.103-1.256,2.922-1.99c0.451-0.423,0.882-0.938,1.292-1.546
			c0.409-0.606,0.762-1.27,1.059-1.99c0.296-0.72,0.529-1.467,0.699-2.244c0.169-0.776,0.254-1.531,0.254-2.266v-1.948
			c0-0.141,0.077-0.282,0.233-0.423c0.155-0.141,0.317-0.211,0.487-0.211h4.277c0.169,0,0.324,0.071,0.466,0.211
			c0.141,0.142,0.211,0.283,0.211,0.423V62.694z"/>
		<path fill="#FFFFFF" d="M190.657,60.534c0.395,0,0.593,0.226,0.593,0.677v3.134c0,0.169-0.057,0.318-0.169,0.445
			c-0.113,0.127-0.254,0.19-0.423,0.19h-6.818c0.056,1.355,0.247,2.534,0.572,3.536c0.324,1.002,0.868,1.983,1.63,2.943
			c0.959,1.271,2.442,2.287,4.447,3.049c0.423,0.169,0.699,0.353,0.826,0.55c0.127,0.198,0.19,0.494,0.19,0.889v2.71
			c0,0.311-0.113,0.501-0.339,0.571c-0.226,0.071-0.494,0.064-0.804-0.021c-1.073-0.226-2.132-0.572-3.176-1.038
			c-1.045-0.466-1.849-0.896-2.414-1.292c-0.227-0.169-0.487-0.367-0.784-0.593c-0.296-0.226-0.607-0.494-0.932-0.805
			c-0.325-0.31-0.656-0.684-0.995-1.122c-0.339-0.438-0.649-0.938-0.932-1.503c-0.649,1.158-1.306,2.026-1.969,2.604
			c-0.664,0.579-1.221,1.023-1.672,1.334c-0.283,0.198-0.643,0.41-1.08,0.635c-0.438,0.226-0.91,0.452-1.418,0.677
			c-0.508,0.227-1.052,0.438-1.63,0.635c-0.579,0.198-1.137,0.354-1.673,0.466c-0.311,0.085-0.579,0.092-0.805,0.021
			c-0.226-0.07-0.338-0.26-0.338-0.571v-2.71c0-0.395,0.063-0.691,0.19-0.889c0.127-0.197,0.402-0.381,0.826-0.55
			c1.835-0.678,3.232-1.496,4.192-2.457c0.903-0.932,1.552-1.927,1.948-2.985c0.395-1.059,0.621-2.42,0.678-4.086h-6.818
			c-0.169,0-0.311-0.063-0.423-0.19c-0.113-0.127-0.169-0.275-0.169-0.445v-3.134c0-0.451,0.197-0.677,0.593-0.677H190.657z
			 M190.276,80.903c1.637,0,3.176,0.219,4.616,0.656c1.44,0.438,2.696,1.045,3.769,1.821c1.073,0.777,1.912,1.715,2.52,2.816
			c0.607,1.101,0.911,2.315,0.911,3.642c0,1.328-0.304,2.541-0.911,3.642c-0.607,1.101-1.447,2.046-2.52,2.837
			c-1.073,0.79-2.329,1.397-3.769,1.821c-1.439,0.423-2.979,0.635-4.616,0.635c-1.666,0-3.218-0.212-4.658-0.635
			c-1.439-0.424-2.689-1.031-3.748-1.821c-1.059-0.791-1.892-1.736-2.499-2.837c-0.607-1.101-0.911-2.314-0.911-3.642
			c0-1.327,0.303-2.541,0.911-3.642c0.607-1.101,1.44-2.039,2.499-2.816c1.059-0.776,2.308-1.383,3.748-1.821
			C187.058,81.122,188.61,80.903,190.276,80.903z M196.374,89.88c0-1.609-0.551-2.872-1.652-3.79
			c-1.101-0.917-2.583-1.376-4.446-1.376s-3.339,0.459-4.425,1.376c-1.087,0.918-1.63,2.181-1.63,3.79
			c0,1.524,0.543,2.759,1.63,3.706c1.086,0.945,2.562,1.418,4.425,1.418s3.345-0.473,4.446-1.418
			C195.823,92.64,196.374,91.405,196.374,89.88z M202.091,79.378c0,0.198-0.071,0.354-0.212,0.466
			c-0.142,0.113-0.296,0.169-0.466,0.169h-4.277c-0.396,0-0.593-0.212-0.593-0.635v-8.258h-5.632c-0.169,0-0.317-0.063-0.445-0.19
			c-0.127-0.127-0.19-0.261-0.19-0.402v-2.71c0-0.197,0.063-0.36,0.19-0.487c0.127-0.127,0.275-0.19,0.445-0.19h5.632v-7.241
			c0-0.423,0.197-0.635,0.593-0.635h4.277c0.169,0,0.324,0.057,0.466,0.169c0.141,0.113,0.212,0.269,0.212,0.466V79.378z"/>
	</g>
	<g>
		<path fill="#252525" d="M225.703,65.362c-0.339,0-0.508-0.155-0.508-0.466v-3.049c0-0.112,0.049-0.218,0.148-0.317
			c0.099-0.099,0.218-0.148,0.36-0.148h10.502c1.271,0,2.266,0.339,2.986,1.017c0.72,0.677,1.08,1.609,1.08,2.795v7.114
			c0,1.186-0.36,2.104-1.08,2.752c-0.72,0.65-1.715,0.974-2.986,0.974h-5.335v2.964c0,1.299,0.282,2.287,0.847,2.964
			c0.564,0.678,1.567,1.017,3.007,1.017h6.818c0.112,0,0.218,0.049,0.317,0.148c0.099,0.1,0.148,0.219,0.148,0.36v3.049
			c0,0.142-0.05,0.254-0.148,0.339c-0.099,0.084-0.205,0.127-0.317,0.127h-8.258c-2.484,0-4.433-0.628-5.844-1.885
			c-1.412-1.256-2.117-3.07-2.117-5.441v-7.241c0-0.311,0.155-0.466,0.466-0.466h8.935v-4.235c0-0.847-0.127-1.454-0.381-1.821
			c-0.254-0.367-0.833-0.55-1.736-0.55H225.703z M249.671,59.264c0.169,0,0.324,0.057,0.466,0.169
			c0.141,0.113,0.212,0.269,0.212,0.466v37.053c0,0.169-0.071,0.318-0.212,0.445c-0.142,0.127-0.296,0.19-0.466,0.19h-3.811
			c-0.198,0-0.354-0.063-0.466-0.19c-0.113-0.127-0.169-0.275-0.169-0.445v-21.47h-3.557c-0.169,0-0.317-0.063-0.445-0.19
			c-0.127-0.127-0.19-0.261-0.19-0.402v-2.71c0-0.197,0.063-0.36,0.19-0.487c0.127-0.127,0.275-0.19,0.445-0.19h3.557V59.899
			c0-0.423,0.212-0.635,0.635-0.635H249.671z M257.251,59.264c0.169,0,0.324,0.057,0.466,0.169c0.141,0.113,0.212,0.269,0.212,0.466
			v37.053c0,0.169-0.071,0.318-0.212,0.445c-0.142,0.127-0.296,0.19-0.466,0.19h-3.811c-0.198,0-0.354-0.063-0.466-0.19
			c-0.113-0.127-0.169-0.275-0.169-0.445V59.899c0-0.423,0.212-0.635,0.635-0.635H257.251z"/>
		<path fill="#252525" d="M296.167,88.483c0.282,0,0.423,0.156,0.423,0.466v3.473c0,0.339-0.142,0.508-0.423,0.508h-30.913
			c-0.367,0-0.551-0.169-0.551-0.508v-3.473c0-0.31,0.184-0.466,0.551-0.466h12.577v-7.495h-10.502c-0.367,0-0.55-0.155-0.55-0.466
			v-3.388c0-0.339,0.183-0.508,0.55-0.508h4.786V65.743h-4.362c-0.367,0-0.551-0.155-0.551-0.466v-3.388
			c0-0.339,0.184-0.508,0.551-0.508h25.662c0.282,0,0.423,0.169,0.423,0.508v3.388c0,0.311-0.142,0.466-0.423,0.466h-4.235v10.883
			h4.658c0.282,0,0.423,0.169,0.423,0.508v3.388c0,0.311-0.142,0.466-0.423,0.466h-10.459v7.495H296.167z M277.493,76.626h6.31
			V65.743h-6.31V76.626z"/>
		<path fill="#252525" d="M334.279,88.483c0.282,0,0.423,0.156,0.423,0.466v3.473c0,0.339-0.142,0.508-0.423,0.508h-30.913
			c-0.367,0-0.551-0.169-0.551-0.508v-3.473c0-0.31,0.184-0.466,0.551-0.466H334.279z M330.849,70.02
			c0.282,0,0.424,0.169,0.424,0.508v3.218c0,0.283-0.142,0.424-0.424,0.424h-19.564v0.804c0,0.989,0.247,1.694,0.741,2.118
			c0.494,0.423,1.25,0.635,2.266,0.635h16.981c0.112,0,0.218,0.049,0.317,0.148c0.099,0.1,0.148,0.219,0.148,0.36v3.515
			c0,0.142-0.049,0.261-0.148,0.36c-0.099,0.099-0.205,0.148-0.317,0.148H311.2c-1.694,0-3.028-0.458-4.001-1.376
			c-0.974-0.917-1.461-2.181-1.461-3.79V65.192c0-1.186,0.36-2.118,1.08-2.795c0.72-0.678,1.715-1.017,2.985-1.017h21.428
			c0.112,0,0.226,0.05,0.339,0.148c0.112,0.099,0.169,0.205,0.169,0.317v3.6c0,0.142-0.057,0.254-0.169,0.339
			c-0.113,0.084-0.227,0.127-0.339,0.127h-17.574c-0.904,0-1.524,0.205-1.863,0.614c-0.338,0.409-0.508,1.037-0.508,1.884v1.609
			H330.849z"/>
		<path fill="#252525" d="M374.169,69.851c0,1.497-0.261,2.852-0.784,4.065c-0.522,1.214-1.242,2.259-2.16,3.134
			c-0.917,0.875-2.005,1.553-3.26,2.033c-1.257,0.48-2.619,0.72-4.087,0.72c-1.468,0-2.823-0.239-4.065-0.72
			c-1.243-0.48-2.323-1.157-3.24-2.033c-0.917-0.875-1.638-1.919-2.16-3.134c-0.522-1.213-0.783-2.568-0.783-4.065
			c0-1.468,0.261-2.816,0.783-4.044c0.522-1.228,1.242-2.279,2.16-3.155c0.917-0.875,1.997-1.552,3.24-2.033
			c1.242-0.479,2.597-0.72,4.065-0.72c1.468,0,2.83,0.24,4.087,0.72c1.255,0.48,2.343,1.158,3.26,2.033
			c0.917,0.875,1.637,1.927,2.16,3.155S374.169,68.383,374.169,69.851z M368.453,69.851c0-0.932-0.134-1.771-0.402-2.52
			c-0.269-0.748-0.614-1.39-1.038-1.927c-0.423-0.536-0.91-0.945-1.461-1.228c-0.55-0.282-1.122-0.423-1.715-0.423
			s-1.165,0.142-1.715,0.423c-0.55,0.283-1.044,0.692-1.482,1.228c-0.438,0.537-0.784,1.179-1.038,1.927
			c-0.254,0.749-0.381,1.588-0.381,2.52s0.127,1.778,0.381,2.541s0.6,1.405,1.038,1.927c0.438,0.523,0.932,0.925,1.482,1.207
			c0.551,0.283,1.123,0.423,1.715,0.423s1.165-0.141,1.715-0.423c0.551-0.282,1.038-0.684,1.461-1.207
			c0.423-0.522,0.769-1.165,1.038-1.927C368.318,71.629,368.453,70.782,368.453,69.851z M372.984,80.903
			c1.637,0,3.176,0.219,4.616,0.656c1.439,0.438,2.695,1.045,3.769,1.821c1.073,0.777,1.913,1.715,2.52,2.816
			c0.606,1.101,0.91,2.315,0.91,3.642c0,1.328-0.304,2.541-0.91,3.642c-0.607,1.101-1.447,2.046-2.52,2.837
			c-1.073,0.79-2.329,1.397-3.769,1.821c-1.44,0.423-2.979,0.635-4.616,0.635c-1.667,0-3.219-0.212-4.658-0.635
			c-1.44-0.424-2.689-1.031-3.748-1.821c-1.059-0.791-1.892-1.736-2.498-2.837c-0.607-1.101-0.911-2.314-0.911-3.642
			c0-1.327,0.303-2.541,0.911-3.642c0.606-1.101,1.439-2.039,2.498-2.816c1.059-0.776,2.308-1.383,3.748-1.821
			C369.765,81.122,371.317,80.903,372.984,80.903z M379.082,89.88c0-1.609-0.55-2.872-1.651-3.79
			c-1.101-0.917-2.583-1.376-4.446-1.376s-3.339,0.459-4.425,1.376c-1.087,0.918-1.63,2.181-1.63,3.79
			c0,1.524,0.543,2.759,1.63,3.706c1.086,0.945,2.562,1.418,4.425,1.418s3.345-0.473,4.446-1.418
			C378.531,92.64,379.082,91.405,379.082,89.88z M384.798,63.583h4.446c0.169,0,0.318,0.063,0.445,0.19
			c0.127,0.127,0.19,0.275,0.19,0.445v2.456c0,0.198-0.063,0.354-0.19,0.466c-0.127,0.113-0.275,0.169-0.445,0.169h-4.446v3.684
			h4.446c0.169,0,0.318,0.063,0.445,0.19c0.127,0.127,0.19,0.29,0.19,0.487v2.456c0,0.142-0.063,0.275-0.19,0.402
			s-0.275,0.19-0.445,0.19h-4.446v5.167c0,0.198-0.071,0.353-0.211,0.466c-0.142,0.113-0.297,0.169-0.466,0.169h-4.277
			c-0.396,0-0.593-0.212-0.593-0.635V59.899c0-0.423,0.197-0.635,0.593-0.635h4.277c0.169,0,0.324,0.057,0.466,0.169
			c0.141,0.113,0.211,0.269,0.211,0.466V63.583z"/>
		<path fill="#252525" d="M410.926,79.421c-1.073-0.226-2.132-0.572-3.176-1.038s-1.849-0.896-2.414-1.292
			c-0.227-0.169-0.487-0.367-0.784-0.593c-0.296-0.226-0.607-0.494-0.932-0.805c-0.325-0.311-0.656-0.684-0.995-1.122
			c-0.338-0.438-0.649-0.938-0.932-1.503c-0.649,1.158-1.306,2.026-1.969,2.604c-0.664,0.579-1.222,1.024-1.673,1.334
			c-0.283,0.198-0.643,0.41-1.08,0.635c-0.438,0.227-0.91,0.452-1.418,0.678c-0.508,0.226-1.052,0.438-1.63,0.635
			c-0.579,0.198-1.137,0.353-1.673,0.466c-0.311,0.084-0.579,0.092-0.804,0.021c-0.227-0.07-0.339-0.261-0.339-0.572v-2.71
			c0-0.395,0.063-0.691,0.19-0.889c0.127-0.197,0.402-0.381,0.826-0.551c1.835-0.677,3.232-1.496,4.192-2.456
			c0.508-0.508,0.932-1.03,1.271-1.567c0.339-0.536,0.607-1.122,0.805-1.757c0.197-0.635,0.339-1.34,0.423-2.117
			c0.084-0.776,0.127-1.658,0.127-2.647v-3.43c0-0.141,0.078-0.282,0.233-0.423c0.155-0.141,0.318-0.211,0.487-0.211h4.065
			c0.169,0,0.324,0.071,0.466,0.211c0.141,0.142,0.212,0.283,0.212,0.423v3.43c0,1.609,0.155,2.993,0.466,4.15
			c0.31,1.158,0.889,2.273,1.736,3.346c0.959,1.271,2.441,2.287,4.446,3.049c0.423,0.169,0.699,0.354,0.826,0.551
			c0.127,0.198,0.19,0.494,0.19,0.889v2.71c0,0.311-0.113,0.501-0.339,0.572C411.504,79.513,411.236,79.505,410.926,79.421z
			 M398.434,87.551c-0.113,0-0.219-0.049-0.317-0.148c-0.099-0.099-0.148-0.219-0.148-0.36v-3.43c0-0.141,0.049-0.261,0.148-0.36
			c0.099-0.098,0.205-0.148,0.317-0.148h19.014c1.694,0,3.027,0.459,4.002,1.376s1.461,2.181,1.461,3.79v8.681
			c0,0.141-0.057,0.282-0.17,0.424c-0.112,0.141-0.281,0.211-0.508,0.211h-4.191c-0.198,0-0.36-0.071-0.488-0.211
			c-0.127-0.142-0.189-0.283-0.189-0.424v-6.648c0-0.988-0.248-1.694-0.742-2.117s-1.248-0.635-2.266-0.635H398.434z M422.91,79.802
			c0,0.198-0.07,0.354-0.211,0.466c-0.143,0.113-0.297,0.169-0.467,0.169h-4.277c-0.395,0-0.592-0.211-0.592-0.635V59.899
			c0-0.423,0.197-0.635,0.592-0.635h4.277c0.17,0,0.324,0.057,0.467,0.169c0.141,0.113,0.211,0.269,0.211,0.466V79.802z"/>
	</g>
	<g>
		<path fill="#252525" d="M460.283,83.232v4.955c0,0.169-0.057,0.332-0.17,0.487c-0.112,0.156-0.268,0.233-0.465,0.233h-4.32
			c-0.169,0-0.311-0.077-0.423-0.233c-0.113-0.155-0.169-0.317-0.169-0.487v-4.955h-13.594c-0.367,0-0.551-0.155-0.551-0.466v-3.261
			c0-0.339,0.184-0.508,0.551-0.508h30.913c0.282,0,0.423,0.169,0.423,0.508v3.261c0,0.311-0.141,0.466-0.423,0.466H460.283z
			 M452.068,93.141c-1.017,0-1.772-0.212-2.266-0.635c-0.494-0.423-0.741-1.129-0.741-2.117v-3.346c0-0.141-0.063-0.282-0.19-0.423
			c-0.127-0.141-0.29-0.211-0.487-0.211h-4.192c-0.227,0-0.396,0.071-0.508,0.211c-0.113,0.142-0.17,0.283-0.17,0.423v5.378
			c0,1.609,0.487,2.872,1.461,3.79c0.975,0.917,2.309,1.376,4.002,1.376h20.072c0.113,0,0.219-0.049,0.318-0.148
			c0.098-0.1,0.147-0.219,0.147-0.36v-3.43c0-0.142-0.05-0.261-0.147-0.36c-0.1-0.1-0.205-0.148-0.318-0.148H452.068z
			 M469.049,70.824c0,1.609-0.486,2.873-1.461,3.79c-0.974,0.918-2.308,1.376-4.002,1.376h-14.059c-1.693,0-3.027-0.458-4.002-1.376
			c-0.975-0.917-1.461-2.181-1.461-3.79v-9.867c0-0.423,0.197-0.635,0.593-0.635h23.927c0.111,0,0.218,0.05,0.316,0.148
			c0.1,0.099,0.148,0.219,0.148,0.36V70.824z M461.723,72.052c1.186,0,1.779-0.663,1.779-1.99v-5.801h-13.933v5.801
			c0,1.328,0.593,1.99,1.778,1.99H461.723z"/>
		<path fill="#252525" d="M484.039,74.127c0,1.327,0.594,1.99,1.779,1.99h13.424c0.112,0,0.226,0.042,0.339,0.127
			c0.112,0.085,0.169,0.198,0.169,0.339v3.515c0,0.113-0.057,0.219-0.169,0.318c-0.113,0.099-0.227,0.148-0.339,0.148h-15.287
			c-1.694,0-3.027-0.451-4.002-1.355c-0.975-0.903-1.461-2.16-1.461-3.769V64.345c0-1.186,0.359-2.117,1.08-2.795
			c0.72-0.677,1.715-1.016,2.985-1.016h14.313c0.111,0,0.225,0.049,0.338,0.148c0.113,0.1,0.17,0.205,0.17,0.318v3.515
			c0,0.142-0.057,0.254-0.17,0.339c-0.113,0.084-0.227,0.127-0.338,0.127h-10.715c-0.903,0-1.481,0.184-1.735,0.551
			c-0.255,0.367-0.382,0.974-0.382,1.821V74.127z M509.066,93.141c0.113,0,0.219,0.049,0.318,0.148
			c0.098,0.099,0.147,0.218,0.147,0.36v3.43c0,0.141-0.05,0.26-0.147,0.36c-0.1,0.099-0.205,0.148-0.318,0.148h-19.691
			c-1.693,0-3.027-0.459-4.002-1.376c-0.974-0.918-1.461-2.181-1.461-3.79v-7.496c0-0.141,0.057-0.282,0.17-0.423
			c0.112-0.141,0.281-0.212,0.508-0.212h4.192c0.197,0,0.36,0.071,0.487,0.212c0.127,0.142,0.19,0.283,0.19,0.423v5.463
			c0,0.988,0.247,1.694,0.741,2.117s1.249,0.635,2.266,0.635H509.066z M513.09,67.563c0.395,0,0.592,0.227,0.592,0.678v2.499
			c0,0.142-0.057,0.275-0.169,0.402s-0.254,0.19-0.423,0.19h-4.489v15.668c0,0.198-0.071,0.353-0.212,0.466
			s-0.297,0.169-0.465,0.169h-4.277c-0.396,0-0.594-0.212-0.594-0.635V59.899c0-0.423,0.197-0.635,0.594-0.635h4.277
			c0.168,0,0.324,0.057,0.465,0.169c0.141,0.113,0.212,0.269,0.212,0.466v7.665H513.09z"/>
		<path fill="#252525" d="M536.083,81.199c-1.694,0-3.028-0.458-4.001-1.376c-0.975-0.917-1.461-2.181-1.461-3.79V61.169
			c0-0.424,0.196-0.635,0.592-0.635h4.234c0.452,0,0.678,0.211,0.678,0.635v6.394h8.174v-6.394c0-0.424,0.211-0.635,0.635-0.635
			h4.234c0.451,0,0.678,0.211,0.678,0.635v7.241h6.141v-8.512c0-0.423,0.197-0.635,0.593-0.635h4.276
			c0.17,0,0.324,0.057,0.467,0.169c0.141,0.113,0.211,0.269,0.211,0.466v27.525c0,0.198-0.07,0.354-0.211,0.466
			c-0.143,0.113-0.297,0.169-0.467,0.169h-4.276c-0.396,0-0.593-0.212-0.593-0.635V72.391h-6.141v3.642
			c0,1.609-0.486,2.873-1.461,3.79c-0.974,0.917-2.308,1.376-4.002,1.376H536.083z M544.299,71.333h-8.174v3.938
			c0,1.327,0.594,1.99,1.779,1.99h4.615c1.186,0,1.779-0.663,1.779-1.99V71.333z M561.576,93.141c0.112,0,0.219,0.049,0.317,0.148
			c0.099,0.099,0.147,0.218,0.147,0.36v3.43c0,0.141-0.049,0.26-0.147,0.36c-0.099,0.099-0.205,0.148-0.317,0.148h-19.691
			c-1.693,0-3.027-0.459-4.002-1.376c-0.975-0.918-1.461-2.181-1.461-3.79v-7.496c0-0.141,0.057-0.282,0.17-0.423
			c0.111-0.141,0.281-0.212,0.508-0.212h4.192c0.196,0,0.36,0.071,0.487,0.212c0.127,0.142,0.189,0.283,0.189,0.423v5.463
			c0,0.988,0.248,1.694,0.742,2.117c0.493,0.423,1.248,0.635,2.266,0.635H561.576z"/>
		<path fill="#252525" d="M600.365,88.483c0.281,0,0.424,0.156,0.424,0.466v3.473c0,0.339-0.143,0.508-0.424,0.508h-30.913
			c-0.367,0-0.551-0.169-0.551-0.508v-3.473c0-0.31,0.184-0.466,0.551-0.466h12.577v-4.955c-1.13-0.254-2.153-0.67-3.07-1.249
			c-0.918-0.579-1.701-1.271-2.35-2.075c-0.65-0.805-1.151-1.715-1.504-2.731c-0.354-1.016-0.529-2.103-0.529-3.261
			c0-1.27,0.226-2.462,0.678-3.578c0.451-1.115,1.086-2.082,1.905-2.901h-5.124c-0.17,0-0.311-0.063-0.424-0.19
			s-0.169-0.275-0.169-0.445v-3.133c0-0.452,0.197-0.678,0.593-0.678h9.951v-3.43c0-0.141,0.07-0.275,0.213-0.402
			c0.141-0.127,0.324-0.19,0.55-0.19h4.276c0.197,0,0.354,0.063,0.467,0.19c0.112,0.127,0.169,0.262,0.169,0.402v3.43h9.994
			c0.396,0,0.593,0.226,0.593,0.678v3.133c0,0.169-0.057,0.318-0.17,0.445s-0.254,0.19-0.423,0.19h-5.167
			c0.818,0.819,1.454,1.786,1.906,2.901c0.451,1.116,0.678,2.308,0.678,3.578c0,1.158-0.184,2.245-0.551,3.261
			c-0.367,1.017-0.875,1.927-1.524,2.731s-1.433,1.497-2.351,2.075s-1.941,0.995-3.07,1.249v4.955H600.365z M589.82,74.212
			c0-0.959-0.134-1.813-0.402-2.562c-0.268-0.748-0.635-1.376-1.101-1.884s-1.003-0.896-1.608-1.165
			c-0.607-0.268-1.264-0.402-1.97-0.402c-0.678,0-1.327,0.134-1.948,0.402c-0.621,0.269-1.158,0.656-1.609,1.165
			s-0.812,1.137-1.079,1.884c-0.269,0.749-0.402,1.603-0.402,2.562c0,0.904,0.134,1.708,0.402,2.414
			c0.268,0.706,0.628,1.313,1.079,1.821s0.988,0.896,1.609,1.165c0.621,0.269,1.271,0.402,1.948,0.402
			c0.706,0,1.362-0.141,1.97-0.423c0.605-0.282,1.143-0.678,1.608-1.186c0.466-0.508,0.833-1.115,1.101-1.821
			C589.687,75.878,589.82,75.087,589.82,74.212z"/>
		<path fill="#252525" d="M641.652,72.646c0.112,0,0.219,0.049,0.317,0.148c0.099,0.099,0.148,0.219,0.148,0.36v3.303
			c0,0.142-0.05,0.261-0.148,0.36c-0.099,0.099-0.205,0.148-0.317,0.148h-15.414c-1.694,0-3.027-0.458-4.002-1.376
			c-0.975-0.917-1.461-2.181-1.461-3.79V60.746c0-0.141,0.057-0.282,0.17-0.423c0.111-0.141,0.281-0.211,0.508-0.211h4.191
			c0.197,0,0.361,0.071,0.488,0.211c0.127,0.142,0.189,0.283,0.189,0.423v9.147c0,0.989,0.247,1.694,0.742,2.118
			c0.493,0.423,1.248,0.635,2.266,0.635H641.652z M647.412,86.366c1.072,1.243,1.608,2.654,1.608,4.234
			c0,1.101-0.254,2.118-0.763,3.049c-0.508,0.932-1.207,1.722-2.096,2.371s-1.934,1.158-3.134,1.525
			c-1.2,0.366-2.491,0.55-3.874,0.55c-1.384,0-2.676-0.184-3.875-0.55c-1.201-0.367-2.244-0.875-3.134-1.525
			s-1.588-1.439-2.097-2.371c-0.508-0.932-0.762-1.948-0.762-3.049c0-1.609,0.521-3.021,1.566-4.234h-3.642
			c-0.169,0-0.312-0.063-0.423-0.19c-0.113-0.127-0.17-0.275-0.17-0.445v-2.795c0-0.451,0.197-0.678,0.593-0.678h9.021v-2.71
			c0-0.141,0.07-0.275,0.211-0.402s0.324-0.19,0.551-0.19h4.531c0.197,0,0.353,0.063,0.466,0.19
			c0.112,0.127,0.169,0.261,0.169,0.402v2.71h8.979c0.395,0,0.592,0.227,0.592,0.678v2.795c0,0.169-0.057,0.317-0.169,0.445
			c-0.113,0.127-0.255,0.19-0.423,0.19H647.412z M643.896,90.346c0-1.186-0.416-2.131-1.249-2.837
			c-0.833-0.705-1.927-1.086-3.282-1.143h-0.211c-1.44,0-2.584,0.36-3.431,1.08c-0.847,0.72-1.271,1.688-1.271,2.901
			c0,1.186,0.424,2.145,1.271,2.88c0.847,0.733,1.99,1.101,3.431,1.101c1.439,0,2.59-0.367,3.451-1.101
			C643.466,92.491,643.896,91.532,643.896,90.346z M651.73,78.108c0,0.198-0.07,0.354-0.211,0.466
			c-0.143,0.113-0.297,0.169-0.467,0.169h-4.276c-0.396,0-0.593-0.212-0.593-0.635v-9.104h-9.02c-0.17,0-0.318-0.063-0.445-0.19
			s-0.19-0.261-0.19-0.402V65.7c0-0.197,0.063-0.36,0.19-0.487s0.275-0.19,0.445-0.19h9.02v-5.124c0-0.423,0.197-0.635,0.593-0.635
			h4.276c0.17,0,0.324,0.057,0.467,0.169c0.141,0.113,0.211,0.269,0.211,0.466V78.108z"/>
		<path fill="#252525" d="M658.676,65.828c-0.113,0-0.219-0.049-0.318-0.148c-0.1-0.099-0.148-0.218-0.148-0.36v-3.43
			c0-0.141,0.049-0.261,0.148-0.36c0.1-0.099,0.205-0.148,0.318-0.148h12.661c1.694,0,3.028,0.459,4.002,1.376
			c0.974,0.917,1.461,2.181,1.461,3.79v19.691c0,0.142-0.057,0.282-0.169,0.423c-0.113,0.142-0.283,0.212-0.509,0.212h-4.149
			c-0.198,0-0.36-0.07-0.487-0.212c-0.127-0.141-0.19-0.282-0.19-0.423V68.58c0-0.988-0.248-1.694-0.741-2.117
			c-0.494-0.424-1.249-0.635-2.266-0.635H658.676z M688.318,59.264c0.169,0,0.324,0.057,0.466,0.169
			c0.141,0.113,0.212,0.269,0.212,0.466v37.053c0,0.169-0.071,0.318-0.212,0.445c-0.142,0.127-0.297,0.19-0.466,0.19h-4.234
			c-0.198,0-0.354-0.063-0.467-0.19s-0.169-0.275-0.169-0.445V59.899c0-0.423,0.212-0.635,0.636-0.635H688.318z"/>
	</g>
	<g>
		<path fill="#252525" d="M33.383,123.804c0,1.609-0.487,2.873-1.461,3.79c-0.974,0.918-2.308,1.376-4.001,1.376h-4.319v2.922
			h12.789c0.282,0,0.423,0.155,0.423,0.466v3.261c0,0.339-0.142,0.508-0.423,0.508H5.476c-0.367,0-0.551-0.169-0.551-0.508v-3.261
			c0-0.311,0.184-0.466,0.551-0.466h12.577v-2.922h-4.192c-1.694,0-3.028-0.458-4.002-1.376c-0.974-0.917-1.461-2.181-1.461-3.79
			v-8.3c0-0.424,0.197-0.635,0.593-0.635h23.926c0.112,0,0.218,0.049,0.317,0.148c0.099,0.1,0.148,0.219,0.148,0.36V123.804z
			 M8.229,143.495c-0.113,0-0.219-0.049-0.317-0.148c-0.1-0.098-0.148-0.218-0.148-0.359v-3.43c0-0.141,0.049-0.262,0.148-0.36
			c0.099-0.099,0.204-0.147,0.317-0.147h20.284c1.694,0,3.028,0.459,4.002,1.375c0.974,0.918,1.461,2.182,1.461,3.791v7.071
			c0,0.142-0.057,0.282-0.169,0.424c-0.113,0.141-0.283,0.212-0.508,0.212h-4.192c-0.198,0-0.36-0.071-0.487-0.212
			c-0.127-0.142-0.19-0.282-0.19-0.424v-5.039c0-0.987-0.248-1.694-0.741-2.117c-0.494-0.424-1.25-0.636-2.266-0.636H8.229z
			 M26.057,125.032c1.186,0,1.778-0.663,1.778-1.99v-4.235H13.903v4.235c0,1.327,0.593,1.99,1.779,1.99H26.057z"/>
		<path fill="#252525" d="M55.53,122.068v2.541c0.056,1.722,0.226,3.296,0.508,4.722c0.282,1.426,0.748,2.689,1.397,3.79
			c0.508,0.876,1.129,1.639,1.863,2.287c0.734,0.65,1.609,1.2,2.625,1.651c0.424,0.198,0.699,0.389,0.826,0.571
			c0.127,0.185,0.19,0.474,0.19,0.869v3.091c0,0.312-0.113,0.501-0.339,0.571c-0.226,0.071-0.494,0.064-0.805-0.021
			c-0.819-0.226-1.666-0.551-2.541-0.974c-0.875-0.424-1.596-0.848-2.16-1.271c-0.904-0.678-1.793-1.496-2.668-2.455
			c-0.875-0.96-1.539-1.963-1.99-3.008c-0.452,1.045-1.08,2.033-1.885,2.965c-0.804,0.932-1.659,1.736-2.562,2.414
			c-0.565,0.424-1.299,0.861-2.202,1.313c-0.904,0.452-1.723,0.791-2.456,1.017c-0.311,0.112-0.579,0.127-0.805,0.042
			c-0.227-0.084-0.339-0.281-0.339-0.593v-3.091c0-0.396,0.063-0.685,0.19-0.869c0.127-0.183,0.402-0.373,0.826-0.571
			c1.017-0.451,1.891-1.001,2.625-1.651c0.734-0.648,1.355-1.411,1.863-2.287c0.649-1.101,1.115-2.364,1.397-3.79
			c0.282-1.425,0.451-3,0.508-4.722v-2.541h-6.183c-0.169,0-0.311-0.063-0.423-0.19c-0.113-0.127-0.169-0.275-0.169-0.445v-3.133
			c0-0.452,0.197-0.678,0.593-0.678h6.395v-3.473c0-0.141,0.07-0.275,0.211-0.402c0.141-0.127,0.324-0.191,0.551-0.191h4.15
			c0.197,0,0.353,0.063,0.466,0.191c0.112,0.127,0.169,0.261,0.169,0.402v3.473h6.14c0.395,0,0.593,0.226,0.593,0.678v3.133
			c0,0.169-0.057,0.318-0.169,0.445s-0.254,0.19-0.423,0.19H55.53z M72.257,113.599c0.169,0,0.324,0.057,0.466,0.169
			c0.141,0.113,0.211,0.269,0.211,0.466v10.925h4.446c0.169,0,0.318,0.063,0.445,0.191c0.127,0.127,0.19,0.29,0.19,0.487v2.71
			c0,0.142-0.063,0.275-0.19,0.402s-0.275,0.191-0.445,0.191h-4.446v22.147c0,0.169-0.071,0.317-0.211,0.444
			c-0.142,0.127-0.297,0.191-0.466,0.191h-4.235c-0.198,0-0.354-0.064-0.466-0.191c-0.113-0.127-0.169-0.275-0.169-0.444v-37.053
			c0-0.423,0.212-0.635,0.635-0.635H72.257z"/>
		<path fill="#252525" d="M100.417,134.433c-1.694,0-3.028-0.458-4.001-1.375c-0.974-0.917-1.461-2.182-1.461-3.791v-13.763
			c0-0.424,0.197-0.635,0.593-0.635h18.167c0.113,0,0.218,0.049,0.318,0.148c0.099,0.1,0.148,0.219,0.148,0.36v13.89
			c0,1.609-0.487,2.873-1.461,3.791c-0.974,0.917-2.308,1.375-4.001,1.375H100.417z M125.486,147.476
			c0.113,0,0.218,0.049,0.318,0.148c0.099,0.1,0.148,0.219,0.148,0.36v3.431c0,0.141-0.049,0.26-0.148,0.359
			c-0.1,0.099-0.205,0.148-0.318,0.148h-19.691c-1.694,0-3.027-0.459-4.001-1.377s-1.461-2.181-1.461-3.789v-7.496
			c0-0.141,0.056-0.281,0.169-0.424c0.112-0.141,0.282-0.211,0.508-0.211h4.192c0.197,0,0.36,0.07,0.487,0.211
			c0.127,0.143,0.19,0.283,0.19,0.424v5.463c0,0.988,0.247,1.693,0.741,2.117c0.494,0.424,1.249,0.635,2.265,0.635H125.486z
			 M106.896,130.495c1.186,0,1.779-0.663,1.779-1.99v-9.698h-8.215v9.698c0,1.327,0.593,1.99,1.778,1.99H106.896z M129.509,121.898
			c0.395,0,0.593,0.227,0.593,0.678v2.499c0,0.142-0.057,0.275-0.169,0.402s-0.254,0.19-0.423,0.19h-4.489v15.668
			c0,0.198-0.071,0.353-0.211,0.466c-0.142,0.113-0.297,0.17-0.466,0.17h-4.277c-0.396,0-0.593-0.213-0.593-0.636v-27.102
			c0-0.423,0.197-0.635,0.593-0.635h4.277c0.169,0,0.324,0.057,0.466,0.169c0.141,0.113,0.211,0.269,0.211,0.466v7.665H129.509z"/>
		<path fill="#252525" d="M164.699,129.182c0.282,0,0.423,0.156,0.423,0.466v3.049c0,0.339-0.142,0.508-0.423,0.508h-30.913
			c-0.367,0-0.551-0.169-0.551-0.508v-3.049c0-0.31,0.184-0.466,0.551-0.466H164.699z M141.535,121.179
			c0,0.989,0.466,1.482,1.397,1.482h18.76c0.31,0,0.465,0.169,0.465,0.508v3.218c0,0.311-0.155,0.466-0.465,0.466H141.62
			c-1.694,0-3.028-0.451-4.001-1.355c-0.974-0.903-1.461-2.16-1.461-3.769v-3.515c0-1.186,0.36-2.11,1.08-2.773
			c0.72-0.663,1.715-0.995,2.985-0.995h21.046c0.113,0,0.226,0.036,0.339,0.105c0.112,0.071,0.169,0.177,0.169,0.318v3.303
			c0,0.142-0.057,0.254-0.169,0.339c-0.113,0.085-0.226,0.127-0.339,0.127h-18.336c-0.932,0-1.397,0.508-1.397,1.525V121.179z
			 M136.157,142.31c0-0.311,0.155-0.466,0.466-0.466h19.352v-1.228c0-0.818-0.353-1.229-1.059-1.229h-18.251
			c-0.339,0-0.508-0.141-0.508-0.424v-3.049c0-0.281,0.169-0.423,0.508-0.423h20.962c1.271,0,2.266,0.339,2.985,1.017
			s1.08,1.609,1.08,2.795v2.498c0,2.4-1.271,3.6-3.812,3.6h-16.007v1.016c0,0.509,0.169,0.911,0.508,1.207
			c0.339,0.297,0.805,0.445,1.397,0.445h17.913c0.112,0,0.226,0.042,0.338,0.127c0.113,0.084,0.169,0.197,0.169,0.338v2.922
			c0,0.142-0.057,0.255-0.169,0.34c-0.113,0.084-0.226,0.127-0.338,0.127h-18.548c-2.287,0-4.023-0.614-5.208-1.842
			c-1.186-1.229-1.778-2.901-1.778-5.019V142.31z"/>
		<path fill="#252525" d="M170.923,120.163c-0.113,0-0.219-0.049-0.317-0.148c-0.1-0.099-0.148-0.218-0.148-0.36v-3.43
			c0-0.141,0.049-0.261,0.148-0.36c0.099-0.099,0.204-0.148,0.317-0.148h12.662c1.694,0,3.028,0.459,4.002,1.376
			c0.974,0.917,1.461,2.181,1.461,3.79v19.691c0,0.143-0.057,0.283-0.169,0.424c-0.113,0.142-0.282,0.212-0.508,0.212h-4.15
			c-0.198,0-0.36-0.07-0.487-0.212c-0.127-0.141-0.19-0.281-0.19-0.424v-17.658c0-0.988-0.248-1.694-0.741-2.117
			c-0.494-0.424-1.25-0.635-2.266-0.635H170.923z M200.566,113.599c0.169,0,0.324,0.057,0.466,0.169
			c0.141,0.113,0.211,0.269,0.211,0.466v37.053c0,0.169-0.071,0.317-0.211,0.444c-0.142,0.127-0.297,0.191-0.466,0.191h-4.235
			c-0.198,0-0.354-0.064-0.466-0.191c-0.113-0.127-0.169-0.275-0.169-0.444v-37.053c0-0.423,0.212-0.635,0.635-0.635H200.566z"/>
	</g>
	<g>
		<path fill="#252525" d="M258.056,142.817c0.282,0,0.423,0.156,0.423,0.467v3.473c0,0.338-0.142,0.508-0.423,0.508h-30.913
			c-0.367,0-0.551-0.17-0.551-0.508v-3.473c0-0.311,0.184-0.467,0.551-0.467h12.577v-6.479c0-0.17,0.056-0.332,0.169-0.486
			c0.112-0.155,0.254-0.233,0.423-0.233h4.319c0.197,0,0.353,0.078,0.466,0.233c0.112,0.154,0.169,0.316,0.169,0.486v6.479H258.056z
			 M228.963,119.781c-0.113,0-0.219-0.049-0.317-0.148c-0.1-0.099-0.148-0.219-0.148-0.36v-3.43c0-0.141,0.049-0.261,0.148-0.36
			c0.099-0.099,0.204-0.148,0.317-0.148h7.326c1.694,0,3.028,0.459,4.001,1.376c0.974,0.918,1.461,2.181,1.461,3.79v12.916
			c0,0.142-0.057,0.283-0.169,0.424c-0.113,0.141-0.283,0.211-0.508,0.211h-3.727c-0.198,0-0.36-0.07-0.487-0.211
			c-0.127-0.141-0.191-0.282-0.191-0.424v-11.73c0-1.271-0.72-1.906-2.16-1.906H228.963z M243.361,119.781
			c-0.113,0-0.219-0.049-0.317-0.148c-0.1-0.099-0.148-0.219-0.148-0.36v-3.43c0-0.141,0.049-0.261,0.148-0.36
			c0.099-0.099,0.204-0.148,0.317-0.148h6.733c1.694,0,3.027,0.459,4.001,1.376c0.974,0.918,1.461,2.181,1.461,3.79v12.916
			c0,0.142-0.057,0.283-0.169,0.424s-0.282,0.211-0.508,0.211h-3.727c-0.198,0-0.36-0.07-0.487-0.211
			c-0.127-0.141-0.19-0.282-0.19-0.424v-10.883c0-0.988-0.248-1.694-0.741-2.117c-0.494-0.423-1.249-0.635-2.265-0.635H243.361z"/>
		<path fill="#252525" d="M264.026,119.697c-0.339,0-0.508-0.155-0.508-0.466v-3.049c0-0.112,0.049-0.218,0.148-0.317
			c0.099-0.099,0.218-0.148,0.36-0.148h14.313c1.271,0,2.266,0.339,2.986,1.017c0.72,0.677,1.08,1.609,1.08,2.795v7.114
			c0,1.186-0.36,2.104-1.08,2.752c-0.72,0.65-1.715,0.974-2.986,0.974h-9.147v2.964c0,1.3,0.282,2.287,0.847,2.964
			c0.564,0.678,1.567,1.018,3.007,1.018h11.476c0.113,0,0.219,0.049,0.318,0.147c0.099,0.1,0.148,0.22,0.148,0.36v3.049
			c0,0.142-0.049,0.254-0.148,0.339c-0.099,0.085-0.205,0.127-0.318,0.127h-12.916c-2.485,0-4.433-0.628-5.844-1.885
			c-1.412-1.256-2.118-3.069-2.118-5.441v-7.241c0-0.311,0.155-0.466,0.466-0.466h12.747v-4.235c0-0.847-0.127-1.454-0.381-1.821
			c-0.254-0.367-0.833-0.55-1.736-0.55H264.026z M293.923,113.599c0.169,0,0.324,0.057,0.466,0.169
			c0.141,0.113,0.211,0.269,0.211,0.466v37.053c0,0.169-0.071,0.317-0.211,0.444c-0.142,0.127-0.297,0.191-0.466,0.191h-4.235
			c-0.198,0-0.354-0.064-0.466-0.191c-0.113-0.127-0.169-0.275-0.169-0.444v-37.053c0-0.423,0.212-0.635,0.635-0.635H293.923z"/>
		<path fill="#252525" d="M308.109,131.893c-1.694,0-3.028-0.458-4.001-1.376c-0.974-0.917-1.461-2.181-1.461-3.79v-11.646
			c0-0.423,0.197-0.635,0.593-0.635h18.167c0.113,0,0.218,0.049,0.318,0.148c0.099,0.099,0.148,0.219,0.148,0.36v11.772
			c0,1.609-0.487,2.873-1.461,3.79c-0.974,0.918-2.308,1.376-4.001,1.376H308.109z M327.165,140.954c0-1.326-0.593-1.99-1.778-1.99
			h-17.151c-0.338,0-0.508-0.141-0.508-0.423v-3.134c0-0.281,0.169-0.424,0.508-0.424h20.411c1.271,0,2.266,0.34,2.986,1.017
			c0.72,0.678,1.08,1.609,1.08,2.795v2.922c0,1.271-0.296,2.188-0.889,2.753s-1.567,0.847-2.922,0.847h-15.626v1.017
			c0,0.508,0.169,0.91,0.508,1.207c0.338,0.296,0.804,0.444,1.397,0.444h17.235c0.112,0,0.226,0.042,0.339,0.127
			c0.112,0.085,0.169,0.197,0.169,0.339v3.006c0,0.142-0.057,0.255-0.169,0.34c-0.113,0.084-0.227,0.127-0.339,0.127h-17.701
			c-2.287,0-4.023-0.594-5.209-1.779c-1.186-1.186-1.778-2.837-1.778-4.954v-3.049c0-0.311,0.155-0.466,0.466-0.466h18.971V140.954z
			 M314.588,127.954c1.186,0,1.779-0.663,1.779-1.99v-7.58h-8.215v7.58c0,1.327,0.593,1.99,1.778,1.99H314.588z M337.201,120.205
			c0.395,0,0.593,0.227,0.593,0.678v2.499c0,0.142-0.057,0.275-0.169,0.402s-0.254,0.19-0.423,0.19h-4.489v8.555
			c0,0.197-0.071,0.353-0.211,0.465c-0.142,0.113-0.297,0.17-0.466,0.17h-4.277c-0.396,0-0.593-0.212-0.593-0.635v-18.294
			c0-0.423,0.197-0.635,0.593-0.635h4.277c0.169,0,0.324,0.057,0.466,0.169c0.141,0.113,0.211,0.269,0.211,0.466v5.971H337.201z"/>
		<path fill="#252525" d="M373.577,140.531v10.671c0,0.17-0.057,0.332-0.169,0.487c-0.113,0.155-0.269,0.233-0.466,0.233h-4.319
			c-0.169,0-0.311-0.078-0.423-0.233c-0.113-0.155-0.169-0.317-0.169-0.487v-10.671h-12.577c-0.367,0-0.551-0.155-0.551-0.466
			v-3.473c0-0.338,0.184-0.508,0.551-0.508h30.913c0.282,0,0.423,0.17,0.423,0.508v3.473c0,0.311-0.142,0.466-0.423,0.466H373.577z
			 M373.661,117.029c0,0.734,0.085,1.489,0.254,2.266c0.169,0.777,0.402,1.524,0.699,2.244c0.296,0.72,0.642,1.384,1.037,1.99
			c0.395,0.607,0.833,1.123,1.313,1.546c0.818,0.734,1.792,1.397,2.922,1.99c1.129,0.593,2.287,0.974,3.473,1.144
			c0.423,0.057,0.698,0.205,0.826,0.444c0.127,0.24,0.19,0.558,0.19,0.953v2.16c0,0.311-0.113,0.515-0.339,0.614
			c-0.226,0.099-0.494,0.134-0.805,0.105c-1.355-0.084-2.704-0.353-4.044-0.805c-1.341-0.451-2.52-0.974-3.536-1.567
			c-1.186-0.677-2.216-1.489-3.091-2.435s-1.497-1.758-1.863-2.435c-0.169,0.339-0.417,0.72-0.741,1.143
			c-0.325,0.424-0.699,0.854-1.123,1.292c-0.423,0.438-0.896,0.868-1.418,1.292c-0.522,0.423-1.08,0.804-1.673,1.143
			c-1.016,0.565-2.174,1.066-3.472,1.503c-1.299,0.438-2.583,0.728-3.854,0.868c-0.311,0.057-0.579,0.028-0.805-0.084
			c-0.226-0.113-0.339-0.325-0.339-0.636v-2.16c0-0.395,0.063-0.713,0.19-0.953c0.127-0.239,0.402-0.388,0.826-0.444
			c1.186-0.169,2.343-0.551,3.472-1.144c1.129-0.593,2.103-1.256,2.922-1.99c0.451-0.423,0.882-0.938,1.292-1.546
			c0.409-0.606,0.762-1.27,1.059-1.99c0.296-0.72,0.529-1.467,0.699-2.244c0.169-0.776,0.254-1.531,0.254-2.266v-1.948
			c0-0.141,0.077-0.282,0.233-0.423c0.155-0.141,0.317-0.211,0.487-0.211h4.277c0.169,0,0.324,0.071,0.466,0.211
			c0.141,0.142,0.211,0.283,0.211,0.423V117.029z"/>
		<path fill="#252525" d="M412.324,114.869c0.395,0,0.592,0.226,0.592,0.677v3.134c0,0.169-0.057,0.318-0.169,0.445
			c-0.113,0.127-0.254,0.19-0.423,0.19h-6.818c0.056,1.355,0.247,2.534,0.572,3.536c0.324,1.002,0.868,1.983,1.63,2.943
			c0.959,1.271,2.442,2.287,4.447,3.049c0.424,0.169,0.699,0.353,0.826,0.55c0.127,0.198,0.189,0.494,0.189,0.889v2.71
			c0,0.312-0.113,0.502-0.338,0.572c-0.227,0.07-0.494,0.063-0.805-0.021c-1.073-0.226-2.132-0.572-3.176-1.037
			c-1.045-0.466-1.849-0.896-2.414-1.292c-0.227-0.169-0.487-0.367-0.784-0.593c-0.296-0.226-0.607-0.494-0.932-0.805
			c-0.325-0.31-0.656-0.684-0.995-1.122c-0.339-0.438-0.649-0.938-0.932-1.503c-0.649,1.158-1.306,2.026-1.969,2.604
			c-0.664,0.579-1.221,1.023-1.672,1.334c-0.283,0.198-0.643,0.41-1.08,0.635c-0.438,0.226-0.91,0.452-1.418,0.677
			c-0.508,0.227-1.052,0.438-1.63,0.636c-0.579,0.198-1.137,0.354-1.673,0.466c-0.311,0.085-0.579,0.092-0.805,0.021
			s-0.338-0.261-0.338-0.572v-2.71c0-0.395,0.063-0.691,0.19-0.889c0.127-0.197,0.402-0.381,0.826-0.55
			c1.835-0.678,3.232-1.496,4.192-2.457c0.903-0.932,1.552-1.927,1.948-2.985c0.395-1.059,0.621-2.42,0.678-4.086h-6.818
			c-0.169,0-0.311-0.063-0.423-0.19c-0.113-0.127-0.169-0.275-0.169-0.445v-3.134c0-0.451,0.197-0.677,0.593-0.677H412.324z
			 M411.942,135.237c1.638,0,3.177,0.22,4.616,0.656c1.439,0.438,2.695,1.045,3.769,1.822c1.073,0.776,1.912,1.715,2.52,2.815
			c0.606,1.101,0.911,2.315,0.911,3.642c0,1.328-0.305,2.541-0.911,3.643c-0.607,1.101-1.446,2.046-2.52,2.837
			c-1.073,0.79-2.329,1.397-3.769,1.821c-1.439,0.423-2.979,0.635-4.616,0.635c-1.666,0-3.218-0.212-4.658-0.635
			c-1.439-0.424-2.689-1.031-3.748-1.821c-1.059-0.791-1.892-1.736-2.499-2.837c-0.607-1.102-0.911-2.314-0.911-3.643
			c0-1.326,0.303-2.541,0.911-3.642c0.607-1.101,1.44-2.039,2.499-2.815c1.059-0.777,2.308-1.384,3.748-1.822
			C408.724,135.457,410.276,135.237,411.942,135.237z M418.041,144.216c0-1.609-0.551-2.873-1.652-3.791
			c-1.102-0.916-2.583-1.375-4.446-1.375s-3.339,0.459-4.425,1.375c-1.087,0.918-1.63,2.182-1.63,3.791
			c0,1.523,0.543,2.759,1.63,3.705c1.086,0.945,2.562,1.418,4.425,1.418s3.345-0.473,4.446-1.418
			C417.49,146.975,418.041,145.739,418.041,144.216z M423.758,133.714c0,0.197-0.071,0.354-0.213,0.465
			c-0.141,0.113-0.296,0.17-0.465,0.17h-4.277c-0.396,0-0.593-0.212-0.593-0.635v-8.258h-5.632c-0.17,0-0.318-0.063-0.445-0.19
			s-0.19-0.261-0.19-0.402v-2.71c0-0.197,0.063-0.36,0.19-0.487c0.127-0.127,0.275-0.19,0.445-0.19h5.632v-7.241
			c0-0.423,0.196-0.635,0.593-0.635h4.277c0.169,0,0.324,0.057,0.465,0.169c0.142,0.113,0.213,0.269,0.213,0.466V133.714z"/>
	</g>
	<g>
	</g>
	<g>
	</g>
	<g>
	</g>
	<g>
	</g>
	<g>
	</g>
	<g>
	</g>
</g>
</svg>
