<?xml version="1.0" encoding="utf-8"?>
<!-- Generator: Adobe Illustrator 16.0.0, SVG Export Plug-In . SVG Version: 6.00 Build 0)  -->
<!DOCTYPE svg PUBLIC "-//W3C//DTD SVG 1.1//EN" "http://www.w3.org/Graphics/SVG/1.1/DTD/svg11.dtd">
<svg version="1.1" xmlns="http://www.w3.org/2000/svg" xmlns:xlink="http://www.w3.org/1999/xlink" x="0px" y="0px"
	 width="850.39px" height="283.46px" viewBox="0 0 850.39 283.46" enable-background="new 0 0 850.39 283.46" xml:space="preserve">
<g id="레이어_2" display="none">
	<rect display="inline" stroke="#000000" stroke-miterlimit="10" width="850.39" height="283.46"/>
	<g display="inline">
		<path d="M176.623,147.622c0-0.24-0.468-0.479-1.164-0.779c-0.06-0.024-0.096-0.048-0.096-0.072c0-0.06,0.18-0.12,0.348-0.12
			c0.432,0.072,1.043,0.264,1.332,0.384c0.18,0.061,0.228,0.145,0.228,0.24c0,0.084-0.048,0.18-0.048,0.264v2.902h1.211
			c0.54,0,0.479-0.288,1.043-0.3c0.54,0.024,0.768,0.132,0.768,0.336c0,0.144-0.096,0.24-0.384,0.24h-2.639v2.746h1.211
			c0.54,0,0.479-0.275,1.043-0.3c0.54,0.036,0.768,0.144,0.768,0.348c0,0.132-0.096,0.24-0.372,0.228h-2.651v2.291
			c0,0.6-0.192,1.079-0.372,1.079c-0.084,0-0.228-0.359-0.228-0.684V147.622z"/>
	</g>
</g>
<g id="레이어_1">
	<g>
		<path fill="#FFFFFF" d="M28.575,112.541c0-4.84,0.814-9.427,2.444-13.756c1.628-4.33,3.932-8.076,6.913-11.242
			c2.979-3.165,6.54-5.678,10.684-7.542c4.142-1.861,8.729-2.793,13.756-2.793c5.028,0,9.612,0.932,13.756,2.793
			c4.142,1.863,7.727,4.377,10.753,7.542c3.024,3.166,5.353,6.913,6.983,11.242c1.628,4.329,2.444,8.916,2.444,13.756
			c0,4.936-0.816,9.545-2.444,13.826c-1.63,4.283-3.958,8.009-6.983,11.173c-3.027,3.166-6.612,5.68-10.753,7.541
			c-4.144,1.863-8.729,2.793-13.756,2.793c-5.027,0-9.614-0.93-13.756-2.793c-4.144-1.861-7.705-4.375-10.684-7.541
			c-2.98-3.164-5.285-6.89-6.913-11.173C29.389,122.086,28.575,117.477,28.575,112.541z M47.428,112.541
			c0,3.167,0.325,6.123,0.978,8.868c0.65,2.748,1.606,5.146,2.863,7.192c1.257,2.049,2.815,3.679,4.678,4.889
			c1.862,1.21,4.002,1.814,6.424,1.814c2.42,0,4.585-0.604,6.494-1.814c1.907-1.209,3.491-2.84,4.748-4.889
			c1.257-2.047,2.211-4.445,2.863-7.192c0.65-2.745,0.978-5.702,0.978-8.868c0-3.164-0.327-6.121-0.978-8.868
			c-0.652-2.745-1.606-5.143-2.863-7.192c-1.257-2.047-2.841-3.677-4.748-4.888c-1.909-1.209-4.074-1.815-6.494-1.815
			c-2.422,0-4.563,0.606-6.424,1.815c-1.863,1.211-3.421,2.841-4.678,4.888c-1.257,2.049-2.213,4.447-2.863,7.192
			C47.753,106.42,47.428,109.377,47.428,112.541z M134.294,186.838c0.371,0,0.72,0.162,1.047,0.489
			c0.325,0.325,0.489,0.72,0.489,1.187v11.313c0,0.465-0.164,0.859-0.489,1.188c-0.327,0.325-0.676,0.488-1.047,0.488h-64.94
			c-5.586,0-9.985-1.515-13.198-4.539c-3.212-3.026-4.818-7.192-4.818-12.499v-24.719c0-0.465,0.186-0.93,0.559-1.396
			c0.371-0.465,0.93-0.698,1.676-0.698h13.826c0.65,0,1.187,0.233,1.606,0.698c0.419,0.467,0.628,0.932,0.628,1.396v18.016
			c0,3.26,0.814,5.586,2.444,6.982c1.628,1.396,4.12,2.095,7.472,2.095H134.294z M134.155,167.984c0,0.652-0.233,1.165-0.698,1.536
			c-0.467,0.373-0.978,0.559-1.536,0.559h-14.105c-1.305,0-1.955-0.698-1.955-2.095V77.208c0-1.396,0.65-2.095,1.955-2.095h14.105
			c0.559,0,1.069,0.188,1.536,0.559c0.465,0.373,0.698,0.886,0.698,1.536V167.984z"/>
		<path fill="#FFFFFF" d="M202.446,100.391c0,5.307,0.511,9.87,1.536,13.686c1.023,3.819,2.933,7.496,5.726,11.033
			c3.164,4.189,8.052,7.542,14.664,10.055c1.396,0.559,2.305,1.166,2.724,1.816c0.419,0.652,0.628,1.63,0.628,2.933v8.938
			c0,1.025-0.374,1.654-1.118,1.886c-0.746,0.233-1.63,0.209-2.653-0.07c-3.54-0.744-7.031-1.885-10.474-3.421
			c-3.446-1.536-6.099-2.955-7.96-4.26c-0.746-0.559-1.606-1.209-2.583-1.955c-0.978-0.744-2.003-1.628-3.073-2.653
			c-1.071-1.023-2.165-2.257-3.282-3.701c-1.117-1.442-2.143-3.094-3.072-4.958c-2.143,3.818-4.308,6.682-6.494,8.589
			c-2.188,1.909-4.028,3.376-5.517,4.399c-0.932,0.652-2.119,1.351-3.561,2.095c-1.444,0.746-3.002,1.49-4.678,2.234
			c-1.676,0.746-3.47,1.444-5.377,2.095c-1.909,0.652-3.749,1.165-5.517,1.536c-1.025,0.279-1.909,0.304-2.653,0.07
			c-0.746-0.231-1.117-0.86-1.117-1.886v-8.938c0-1.303,0.209-2.28,0.628-2.933c0.419-0.65,1.327-1.258,2.723-1.816
			c6.051-2.234,10.66-4.934,13.826-8.1c1.676-1.676,3.072-3.397,4.189-5.167c1.117-1.768,2.001-3.701,2.654-5.795
			c0.65-2.095,1.117-4.421,1.396-6.983c0.279-2.56,0.419-5.468,0.419-8.729h-22.485c-0.559,0-1.025-0.209-1.396-0.628
			c-0.373-0.419-0.559-0.908-0.559-1.466V87.962c0-1.488,0.65-2.235,1.955-2.235h22.206V75.672c0-0.465,0.231-0.908,0.698-1.327
			c0.465-0.419,1.069-0.628,1.815-0.628h13.687c0.65,0,1.163,0.209,1.536,0.628c0.371,0.419,0.559,0.862,0.559,1.327v10.055h22.484
			c1.303,0,1.956,0.747,1.956,2.235v10.334c0,0.559-0.188,1.047-0.559,1.466c-0.373,0.419-0.838,0.628-1.396,0.628H202.446z
			 M262.777,186.838c0.371,0,0.72,0.162,1.047,0.489c0.325,0.325,0.489,0.72,0.489,1.187v11.313c0,0.465-0.164,0.859-0.489,1.188
			c-0.328,0.325-0.677,0.488-1.047,0.488h-64.94c-5.586,0-9.985-1.515-13.197-4.539c-3.212-3.026-4.818-7.192-4.818-12.499v-24.719
			c0-0.465,0.186-0.93,0.559-1.396c0.371-0.465,0.93-0.698,1.676-0.698h13.826c0.65,0,1.187,0.233,1.606,0.698
			c0.419,0.467,0.628,0.932,0.628,1.396v18.016c0,3.26,0.814,5.586,2.444,6.982c1.627,1.396,4.12,2.095,7.471,2.095H262.777z
			 M262.638,167.984c0,0.652-0.234,1.165-0.699,1.536c-0.467,0.373-0.978,0.559-1.536,0.559h-14.105
			c-1.305,0-1.956-0.698-1.956-2.095v-45.388h-18.574c-0.559,0-1.047-0.209-1.466-0.628s-0.628-0.859-0.628-1.327v-8.938
			c0-0.65,0.209-1.187,0.628-1.606s0.908-0.628,1.466-0.628h18.574V77.208c0-1.396,0.65-2.095,1.956-2.095h14.105
			c0.559,0,1.069,0.188,1.536,0.559c0.465,0.373,0.699,0.886,0.699,1.536V167.984z"/>
		<path fill="#FFFFFF" d="M301.042,134.327c0,5.122,1.117,9.032,3.352,11.731c2.234,2.701,6.145,4.05,11.731,4.05h20.809
			c1.023,0,1.536,0.559,1.536,1.676v11.452c0,1.025-0.513,1.536-1.536,1.536h-25.138c-9.032,0-16.13-2.396-21.297-7.192
			c-5.167-4.794-7.751-11.428-7.751-19.9V94.665c0-3.91,1.187-6.982,3.561-9.217c2.374-2.234,5.656-3.352,9.846-3.352h37.009
			c0.371,0,0.744,0.164,1.117,0.489c0.371,0.327,0.559,0.676,0.559,1.047v11.591c0,0.467-0.188,0.838-0.559,1.117
			c-0.373,0.28-0.746,0.419-1.117,0.419h-24.3c-2.981,0-5.028,0.676-6.145,2.025c-1.117,1.351-1.676,3.421-1.676,6.214V134.327z
			 M361.653,75.113c0.559,0,1.069,0.188,1.536,0.559c0.465,0.373,0.698,0.886,0.698,1.536v35.473h9.497V77.208
			c0-1.396,0.698-2.095,2.095-2.095h12.569c0.559,0,1.069,0.188,1.537,0.559c0.465,0.373,0.698,0.886,0.698,1.536v122.199
			c0,0.559-0.233,1.048-0.698,1.467c-0.467,0.419-0.978,0.628-1.537,0.628h-12.569c-0.652,0-1.165-0.209-1.536-0.628
			c-0.373-0.419-0.559-0.908-0.559-1.467v-73.599h-9.497v73.599c0,0.559-0.233,1.048-0.698,1.467
			c-0.467,0.419-0.978,0.628-1.536,0.628h-12.569c-0.652,0-1.165-0.209-1.536-0.628c-0.373-0.419-0.559-0.908-0.559-1.467V77.208
			c0-1.396,0.698-2.095,2.095-2.095H361.653z"/>
		<path fill="#FFFFFF" d="M455.778,95.224c-1.117,0-1.676-0.51-1.676-1.536V83.632c0-0.371,0.162-0.72,0.489-1.047
			c0.325-0.325,0.72-0.489,1.187-0.489h34.635c4.19,0,7.472,1.117,9.846,3.352c2.375,2.235,3.562,5.307,3.562,9.217v23.462
			c0,3.91-1.187,6.937-3.562,9.078c-2.374,2.143-5.655,3.212-9.846,3.212h-17.597v9.776c0,4.283,0.93,7.541,2.794,9.775
			c1.861,2.234,5.167,3.352,9.915,3.352h22.484c0.371,0,0.721,0.164,1.048,0.489c0.325,0.327,0.488,0.723,0.488,1.188v10.055
			c0,0.467-0.163,0.838-0.488,1.117c-0.327,0.279-0.677,0.419-1.048,0.419h-27.232c-8.194,0-14.618-2.07-19.272-6.215
			c-4.657-4.142-6.983-10.125-6.983-17.945v-23.881c0-1.023,0.511-1.536,1.536-1.536h29.468v-13.966
			c0-2.793-0.419-4.794-1.257-6.005c-0.838-1.209-2.747-1.816-5.726-1.816H455.778z M534.824,75.113
			c0.559,0,1.069,0.188,1.536,0.559c0.465,0.373,0.698,0.886,0.698,1.536v122.199c0,0.559-0.233,1.048-0.698,1.467
			c-0.467,0.419-0.978,0.628-1.536,0.628h-12.569c-0.652,0-1.165-0.209-1.536-0.628c-0.373-0.419-0.559-0.908-0.559-1.467v-70.806
			h-11.731c-0.559,0-1.047-0.209-1.466-0.628s-0.629-0.86-0.629-1.327v-8.938c0-0.65,0.21-1.187,0.629-1.606
			s0.907-0.628,1.466-0.628h11.731V77.208c0-1.396,0.698-2.095,2.095-2.095H534.824z M559.822,75.113
			c0.559,0,1.069,0.188,1.536,0.559c0.465,0.373,0.698,0.886,0.698,1.536v122.199c0,0.559-0.233,1.048-0.698,1.467
			c-0.467,0.419-0.978,0.628-1.536,0.628h-12.568c-0.653,0-1.166-0.209-1.537-0.628c-0.373-0.419-0.559-0.908-0.559-1.467V77.208
			c0-1.396,0.698-2.095,2.096-2.095H559.822z"/>
		<path fill="#FFFFFF" d="M688.165,171.476c0.93,0,1.396,0.514,1.396,1.537v11.451c0,1.117-0.467,1.676-1.396,1.676H586.217
			c-1.211,0-1.815-0.559-1.815-1.676v-11.451c0-1.023,0.604-1.537,1.815-1.537h41.478v-24.719H593.06
			c-1.211,0-1.815-0.511-1.815-1.536v-11.172c0-1.118,0.604-1.676,1.815-1.676h15.781V96.481h-14.385
			c-1.211,0-1.815-0.511-1.815-1.537V83.772c0-1.117,0.604-1.676,1.815-1.676h84.632c0.93,0,1.396,0.559,1.396,1.676v11.172
			c0,1.026-0.467,1.537-1.396,1.537h-13.966v35.892h15.362c0.93,0,1.396,0.559,1.396,1.676v11.172c0,1.025-0.467,1.536-1.396,1.536
			h-34.495v24.719H688.165z M626.577,132.373h20.809V96.481h-20.809V132.373z"/>
		<path fill="#FFFFFF" d="M813.854,171.476c0.93,0,1.396,0.514,1.396,1.537v11.451c0,1.117-0.467,1.676-1.396,1.676H711.906
			c-1.211,0-1.815-0.559-1.815-1.676v-11.451c0-1.023,0.604-1.537,1.815-1.537H813.854z M802.543,110.586
			c0.93,0,1.396,0.559,1.396,1.676v10.614c0,0.932-0.467,1.397-1.396,1.397h-64.521v2.653c0,3.26,0.814,5.586,2.444,6.982
			c1.628,1.396,4.12,2.095,7.472,2.095h56.002c0.371,0,0.72,0.164,1.047,0.489c0.325,0.327,0.489,0.723,0.489,1.188v11.591
			c0,0.467-0.164,0.862-0.489,1.188c-0.327,0.327-0.676,0.488-1.047,0.488h-66.197c-5.586,0-9.985-1.512-13.197-4.538
			c-3.212-3.024-4.818-7.192-4.818-12.5V94.665c0-3.91,1.188-6.982,3.562-9.217c2.374-2.234,5.656-3.352,9.846-3.352H803.8
			c0.371,0,0.744,0.164,1.117,0.489c0.371,0.327,0.559,0.676,0.559,1.047v11.871c0,0.467-0.188,0.838-0.559,1.118
			c-0.373,0.279-0.746,0.419-1.117,0.419h-57.957c-2.981,0-5.028,0.676-6.146,2.025c-1.117,1.351-1.676,3.421-1.676,6.215v5.307
			H802.543z"/>
	</g>
	<g>
	</g>
	<g>
	</g>
	<g>
	</g>
	<g>
	</g>
	<g>
	</g>
	<g>
	</g>
</g>
</svg>
